G04*
G04 #@! TF.GenerationSoftware,Altium Limited,Altium Designer,22.10.1 (41)*
G04*
G04 Layer_Physical_Order=1*
G04 Layer_Color=255*
%FSLAX44Y44*%
%MOMM*%
G71*
G04*
G04 #@! TF.SameCoordinates,AEC8B882-0F2C-4FBA-8872-4E3C41141EBA*
G04*
G04*
G04 #@! TF.FilePolarity,Positive*
G04*
G01*
G75*
%ADD13C,0.2540*%
%ADD14R,0.6000X1.0500*%
%ADD15R,0.5000X1.0500*%
%ADD16R,1.4000X1.5000*%
%ADD17R,1.5000X1.4000*%
%ADD18R,4.2000X3.1000*%
%ADD19R,4.7000X1.5000*%
%ADD20R,0.7000X1.1500*%
%ADD21R,1.0500X0.5000*%
%ADD22R,1.4000X1.1000*%
%ADD23R,2.2000X3.1000*%
%ADD24R,3.0000X3.0000*%
%ADD25R,3.0000X3.0000*%
%ADD26R,3.5000X5.1000*%
G04:AMPARAMS|DCode=27|XSize=1.9mm|YSize=0.6mm|CornerRadius=0.075mm|HoleSize=0mm|Usage=FLASHONLY|Rotation=270.000|XOffset=0mm|YOffset=0mm|HoleType=Round|Shape=RoundedRectangle|*
%AMROUNDEDRECTD27*
21,1,1.9000,0.4500,0,0,270.0*
21,1,1.7500,0.6000,0,0,270.0*
1,1,0.1500,-0.2250,-0.8750*
1,1,0.1500,-0.2250,0.8750*
1,1,0.1500,0.2250,0.8750*
1,1,0.1500,0.2250,-0.8750*
%
%ADD27ROUNDEDRECTD27*%
%ADD28R,0.6500X1.5250*%
%ADD29R,1.1000X1.4000*%
%ADD30R,1.4750X0.4500*%
%ADD57R,1.1500X1.1500*%
%ADD58C,1.1500*%
%ADD60C,0.2540*%
%ADD61C,0.5080*%
%ADD62C,1.0000*%
%ADD63C,0.5000*%
%ADD64C,1.5240*%
%ADD65R,1.5300X1.5300*%
%ADD66C,1.5300*%
%ADD67C,2.5500*%
%ADD68R,2.5500X2.5500*%
%ADD69R,1.4000X1.4000*%
%ADD70C,1.4000*%
%ADD71C,1.5080*%
%ADD72R,1.5080X1.5080*%
%ADD73C,1.2700*%
D13*
X798001Y1026160D02*
G03*
X799659Y1026160I829J11430D01*
G01*
X343841Y968185D02*
G03*
X346749Y985035I-6021J9715D01*
G01*
X821690Y1062990D02*
Y1203960D01*
X852170Y1234440D01*
X835540Y1049118D02*
X837028Y1050606D01*
Y1210062D02*
X848706Y1221740D01*
X702993Y1049118D02*
X835540D01*
X837028Y1050606D02*
Y1210062D01*
X542563Y1277650D02*
X584170D01*
X798830Y1062990D01*
X848706Y1221740D02*
X855634D01*
X863600Y1229706D01*
Y1239174D01*
X854364Y1248410D02*
X863600Y1239174D01*
X852170Y1259840D02*
X854364Y1257645D01*
Y1248410D02*
Y1257645D01*
X847090Y1026160D02*
X852170Y1031240D01*
X799659Y1026160D02*
X847090D01*
X693366D02*
X798001D01*
X594276Y1125250D02*
X692622Y1026904D01*
X693366Y1026160D01*
X798830Y986790D02*
X842010Y943610D01*
X875376Y931834D02*
X877570Y929640D01*
X866140Y931834D02*
X875376D01*
X854364Y943610D02*
X866140Y931834D01*
X842010Y943610D02*
X854364D01*
X798830Y1010285D02*
X852170Y956945D01*
X798830Y1010285D02*
Y1012190D01*
X852170Y955040D02*
Y956945D01*
X1292150Y412750D02*
X1294690Y415290D01*
X1244600Y412750D02*
X1292150D01*
X293370Y1385570D02*
X355600Y1447800D01*
X293370Y1283802D02*
Y1385570D01*
Y1283802D02*
X300990Y1276182D01*
Y1174750D02*
Y1276182D01*
X275590Y1174750D02*
X300990D01*
X457200Y1371600D02*
X490220Y1338580D01*
X495300Y1324913D02*
X542563Y1277650D01*
X447071Y1397894D02*
X495300Y1349664D01*
X490220Y1295400D02*
Y1338580D01*
X416012Y1397894D02*
X447071D01*
X394453Y1419453D02*
X416012Y1397894D01*
X355600Y1473200D02*
X357794Y1471006D01*
Y1461770D02*
Y1471006D01*
Y1461770D02*
X394453Y1425112D01*
Y1419453D02*
Y1425112D01*
X495300Y1324913D02*
Y1349664D01*
X542563Y1125250D02*
X594276D01*
X447040Y1417666D02*
Y1433830D01*
Y1417666D02*
X536255Y1328450D01*
X558770D01*
X798830Y1088390D01*
X407670Y1473200D02*
X447040Y1433830D01*
X490220Y1295400D02*
X519430Y1266190D01*
X628644Y1283976D02*
X798830Y1113790D01*
X458470Y1473200D02*
X628644Y1303026D01*
Y1283976D02*
Y1303026D01*
X519430Y1266190D02*
X544830D01*
X521045Y1240790D02*
X544830D01*
X430648Y1331188D02*
X521045Y1240790D01*
X430648Y1331188D02*
Y1338117D01*
X408595Y1360170D02*
Y1369406D01*
Y1360170D02*
X430648Y1338117D01*
X406400Y1371600D02*
X408595Y1369406D01*
X521045Y1189990D02*
X544830D01*
X379848Y1331188D02*
Y1338117D01*
Y1331188D02*
X521045Y1189990D01*
X357794Y1360170D02*
X379848Y1338117D01*
X357794Y1360170D02*
Y1369406D01*
X355600Y1371600D02*
X357794Y1369406D01*
X895350Y1176020D02*
Y1369060D01*
X877570Y1158240D02*
X895350Y1176020D01*
X875030Y1389380D02*
X895350Y1369060D01*
X905510Y1008380D02*
Y1366084D01*
X877570Y980440D02*
X905510Y1008380D01*
X875864Y1395730D02*
X905510Y1366084D01*
X615950Y1391920D02*
Y1409380D01*
X616270Y1409700D02*
Y1446780D01*
X615950Y1409380D02*
X616270Y1409700D01*
X677070Y1410470D02*
X698160Y1389380D01*
X875030D01*
X749120Y1395730D02*
X875864D01*
X677070Y1410470D02*
Y1410970D01*
X734380Y1410470D02*
X749120Y1395730D01*
X754380Y1410970D02*
Y1442320D01*
X746910Y1449790D02*
X754380Y1442320D01*
X734380Y1410470D02*
Y1410970D01*
X448912Y1185560D02*
X482253D01*
X438800Y1175448D02*
X448912Y1185560D01*
X428688Y1175448D02*
X438800D01*
X427990Y1174750D02*
X428688Y1175448D01*
X482253Y1185560D02*
X542563Y1125250D01*
X403264Y1075016D02*
X411034D01*
X422910Y1056640D02*
Y1063140D01*
X411034Y1075016D02*
X422910Y1063140D01*
X401320Y1076960D02*
X403264Y1075016D01*
X315580Y1094072D02*
X322532Y1087120D01*
X424330D02*
X448310Y1063140D01*
X322532Y1087120D02*
X424330D01*
X453986Y988734D02*
X455930Y986790D01*
X315580Y1094072D02*
Y1099248D01*
X305468Y1109360D02*
X315580Y1099248D01*
X275590Y1098550D02*
X285702D01*
X296512Y1109360D01*
X305468D01*
X448310Y1056640D02*
Y1063140D01*
Y1056640D02*
X461010D01*
X458837Y1034346D02*
X481330Y1011853D01*
Y963930D02*
Y1011853D01*
X451404Y1034346D02*
X458837D01*
X342900Y1056640D02*
X384810D01*
X300990Y1098550D02*
X342900Y1056640D01*
X384810D02*
X397510D01*
X410210Y1050140D02*
X431083Y1029267D01*
X435610Y1050140D02*
X451404Y1034346D01*
X431083Y1029267D02*
X456732D01*
X1732210Y438220D02*
X1823860D01*
X496570Y769620D02*
X516650D01*
X516890Y769380D01*
X1554480Y615950D02*
X1732210Y438220D01*
X1260640Y615950D02*
X1554480D01*
X1106170Y461480D02*
X1260640Y615950D01*
X957910Y363220D02*
X1267445D01*
X956170Y361480D02*
X957910Y363220D01*
X641350Y1509260D02*
Y1545650D01*
X693260Y1538976D02*
Y1552160D01*
X760410Y1536596D02*
Y1549780D01*
X740410Y1473540D02*
Y1510030D01*
Y1550780D01*
X754380Y1410970D02*
X777240D01*
X737260Y1553930D02*
Y1556180D01*
X756260Y1553930D02*
Y1556180D01*
X630530Y1556470D02*
Y1558720D01*
X652886Y1579450D02*
X680720D01*
X695628Y1578180D02*
X746760D01*
X611530Y1556470D02*
Y1558720D01*
X621350Y1508760D02*
Y1546650D01*
X621030Y1472270D02*
Y1508440D01*
X621350Y1508760D01*
X611530Y1556470D02*
X621350Y1546650D01*
X642556Y1589780D02*
X652886Y1579450D01*
X543300Y1589780D02*
X642556D01*
X529590Y1576070D02*
X543300Y1589780D01*
X678948Y1594860D02*
X695628Y1578180D01*
X497580Y1594860D02*
X678948D01*
X478790Y1576070D02*
X497580Y1594860D01*
X673260Y1509530D02*
Y1510030D01*
Y1553160D01*
X671220Y1555200D02*
Y1557450D01*
Y1555200D02*
X673260Y1553160D01*
X690220Y1555200D02*
X693260Y1552160D01*
X690220Y1555200D02*
Y1557450D01*
X756260Y1553930D02*
X760410Y1549780D01*
X630530Y1556470D02*
X641350Y1545650D01*
X737260Y1553930D02*
X740410Y1550780D01*
X515620Y1564640D02*
X561138D01*
X504190Y1576070D02*
X515620Y1564640D01*
X577218Y1580720D02*
X621030D01*
X561138Y1564640D02*
X577218Y1580720D01*
X636270Y1410200D02*
X657901Y1431831D01*
X636270Y1409700D02*
Y1410200D01*
X673260Y1509530D02*
X684380Y1498410D01*
X657901Y1431831D02*
Y1444769D01*
X684380Y1472610D02*
Y1498410D01*
X684570Y1460670D02*
X690880Y1454360D01*
X673802Y1460670D02*
X684570D01*
X657901Y1444769D02*
X673802Y1460670D01*
X690880Y1451610D02*
Y1454360D01*
Y1451610D02*
X710054D01*
X690880Y1448860D02*
Y1451610D01*
Y1448860D02*
X697070Y1442670D01*
Y1410970D02*
Y1442670D01*
X614530Y1448520D02*
Y1451270D01*
Y1448520D02*
X616270Y1446780D01*
X627530Y1448520D02*
X636270Y1439780D01*
X627530Y1448520D02*
Y1451270D01*
X636270Y1410200D02*
Y1439780D01*
X710054Y1451610D02*
X720044Y1461600D01*
X740600D01*
X746910Y1455290D01*
Y1452540D02*
Y1455290D01*
Y1449790D02*
Y1452540D01*
X384810Y1007540D02*
X397510D01*
X476250Y662940D02*
X478194Y664884D01*
X485344D01*
X495070Y674610D01*
X496570D01*
X754380Y570420D02*
X755310Y571350D01*
X754380Y556260D02*
Y570420D01*
X731960Y434500D02*
Y437710D01*
X723900Y445770D02*
X731960Y437710D01*
Y434500D02*
X746760Y449300D01*
Y451550D01*
X681990Y434500D02*
X731960D01*
X514976Y815220D02*
X558036Y772160D01*
X462580Y811628D02*
Y812988D01*
X464812Y815220D01*
X558036Y772160D02*
X694030D01*
X464812Y815220D02*
X514976D01*
X461092Y810140D02*
X462580Y811628D01*
X453390Y804410D02*
X459120Y810140D01*
X479120Y797680D02*
X481150D01*
X485745Y802275D01*
X513553D02*
X549740Y766088D01*
X453390Y803910D02*
Y804410D01*
X694030Y772160D02*
X779280Y686910D01*
X459120Y810140D02*
X461092D01*
X481150Y797680D02*
X485260D01*
X485745Y802275D02*
X513553D01*
X453390Y804410D02*
Y916490D01*
Y803910D02*
Y804410D01*
X779280Y686910D02*
X779780D01*
X671680Y766480D02*
X679600D01*
X687400Y758680D01*
Y713988D02*
Y758680D01*
X755690Y584350D02*
X758060D01*
X755310D02*
X755690D01*
X779780Y606070D02*
Y666910D01*
X758060Y584350D02*
X779780Y606070D01*
X720090Y584200D02*
X721758D01*
X728108Y577850D02*
X776310D01*
X721758Y584200D02*
X728108Y577850D01*
X755690Y584350D02*
X756920Y585580D01*
Y618150D01*
X725564Y611544D02*
X750420Y636400D01*
Y639150D01*
X722034Y611544D02*
X725564D01*
X720090Y609600D02*
X722034Y611544D01*
X748610Y656710D02*
X763420Y641900D01*
X729930Y662440D02*
Y662940D01*
Y662440D02*
X735660Y656710D01*
X748610D01*
X763420Y639150D02*
Y641900D01*
X585840Y737460D02*
X608500D01*
X572840Y750460D02*
X585840Y737460D01*
X549740Y750460D02*
X572840D01*
X535308D02*
X549740D01*
X328840Y749391D02*
X423030Y843581D01*
X428760Y942500D02*
X429260D01*
X423030Y936770D02*
X428760Y942500D01*
X423030Y843581D02*
Y936770D01*
X323760Y751496D02*
X363220Y790956D01*
Y930910D01*
X318680Y700149D02*
X337791Y681038D01*
X323760Y720069D02*
X337791Y706038D01*
X328840Y739989D02*
X337791Y731038D01*
Y722089D02*
X340190Y719690D01*
X323760Y720069D02*
Y751496D01*
X342900Y777820D02*
Y865216D01*
X337791Y722089D02*
Y731038D01*
X318680Y753600D02*
X342900Y777820D01*
X318680Y700149D02*
Y753600D01*
X328840Y739989D02*
Y749391D01*
X342900Y887384D02*
Y916015D01*
Y938185D02*
Y967243D01*
X337791Y697089D02*
X340190Y694690D01*
X342900Y916015D02*
X349250Y922365D01*
Y931834D01*
X342900Y887384D02*
X349250Y881034D01*
Y871565D02*
Y881034D01*
X342900Y938185D02*
X349250Y931834D01*
X337791Y697089D02*
Y706038D01*
X342900Y865216D02*
X349250Y871565D01*
X337791Y672089D02*
Y681038D01*
Y672089D02*
X340190Y669690D01*
Y744690D02*
X432930D01*
X449740Y761500D01*
Y762000D01*
X363220Y930910D02*
X374650Y942340D01*
X342900Y967243D02*
X343644Y967987D01*
X346749Y986928D02*
X380671Y1020850D01*
X346749Y985876D02*
X346749Y986928D01*
X346749Y985876D02*
X346749Y985035D01*
X343644Y967987D02*
X343841Y968185D01*
X450450Y719690D02*
X450850Y720090D01*
X340190Y719690D02*
X450450D01*
X352890Y681990D02*
X449900D01*
X340190Y694690D02*
X352890Y681990D01*
X365990Y643890D02*
X451170D01*
X340190Y669690D02*
X365990Y643890D01*
X1444113Y441960D02*
X1483360Y481207D01*
X1443990Y441960D02*
X1444113D01*
X1483360Y481207D02*
Y533400D01*
X1411090Y571740D02*
X1492250D01*
X1409590D02*
X1411090D01*
X1384540Y546690D02*
X1409590Y571740D01*
X1384540Y506730D02*
Y546690D01*
X1410970Y571620D02*
X1411090Y571740D01*
X1451135Y533400D02*
X1463360D01*
X1438910D02*
X1451135D01*
X1449720Y463830D02*
Y531985D01*
X1451135Y533400D01*
X1447800Y461910D02*
X1449720Y463830D01*
X1400570Y488950D02*
X1421450D01*
X1422400Y488000D01*
X1422900D01*
X1435100Y332900D02*
Y407670D01*
X1271255Y359410D02*
X1399540D01*
Y328252D02*
X1415052Y312740D01*
X1399540Y328252D02*
Y359410D01*
X1415052Y312740D02*
X1459230D01*
X1459730D01*
X1470540Y323550D01*
Y342250D01*
X1448300Y364490D02*
X1470540Y342250D01*
X1447800Y364490D02*
X1448300D01*
X1434940Y332740D02*
X1459230D01*
X1406658Y370180D02*
X1414940Y361898D01*
X1399540Y374410D02*
X1403770Y370180D01*
X1414940Y332740D02*
Y361898D01*
X1403770Y370180D02*
X1406658D01*
X1434940Y332740D02*
X1435100Y332900D01*
X1447800Y384490D02*
Y407670D01*
X1422400Y450850D02*
Y461910D01*
X1413510Y441960D02*
X1422400Y450850D01*
X1385570Y488950D02*
Y505700D01*
X1384540Y506730D02*
X1385570Y505700D01*
X1389800Y481832D02*
Y484720D01*
Y481832D02*
X1397313Y474319D01*
X1414367D01*
X1385570Y488950D02*
X1389800Y484720D01*
X1414367Y474319D02*
X1422400Y466285D01*
Y461910D02*
Y466285D01*
X1422900Y488000D02*
X1435100Y475800D01*
Y461910D02*
Y475800D01*
X1400040Y507365D02*
X1421765D01*
X1422400Y508000D01*
X1399540Y506730D02*
Y506865D01*
X1400040Y507365D01*
X686830Y606000D02*
Y641350D01*
X677730Y596900D02*
X686830Y606000D01*
X443904Y923964D02*
Y931134D01*
X441960Y922020D02*
X443904Y923964D01*
X455430Y942660D02*
X455930D01*
X443904Y931134D02*
X455430Y942660D01*
X481330Y962500D02*
X509110D01*
X509270Y962340D01*
X480830Y943930D02*
X481330D01*
X453390Y916490D02*
X480830Y943930D01*
X455770Y962500D02*
X455930Y962660D01*
X429260Y962500D02*
X455770D01*
X417950Y983100D02*
X419100Y984250D01*
X400050Y942500D02*
X400550D01*
X417950Y959900D01*
Y983100D01*
X375150Y962340D02*
X399890D01*
X374650D02*
X375150D01*
X399890D02*
X400050Y962500D01*
X1267445Y363220D02*
X1270635Y360030D01*
X422910Y990809D02*
Y1007540D01*
X419100Y986999D02*
X422910Y990809D01*
X419100Y984250D02*
Y986999D01*
X1396515Y425230D02*
X1409700Y412045D01*
X1392380Y425230D02*
X1396515D01*
X1389380Y428230D02*
X1392380Y425230D01*
X1409700Y407670D02*
Y412045D01*
X1270635Y360030D02*
X1271255Y359410D01*
X511690Y641590D02*
X523980Y629300D01*
X525480D01*
X529710Y625070D01*
X554650Y623570D02*
X574810Y643730D01*
X652780Y641350D02*
X671830D01*
X372110Y988340D02*
X384810Y1001040D01*
Y1007540D01*
X372110Y988060D02*
Y988340D01*
X453986Y988734D02*
Y995364D01*
X448310Y1001040D02*
Y1007540D01*
Y1001040D02*
X453986Y995364D01*
X467820Y976848D02*
Y1018179D01*
X429260Y963770D02*
Y973872D01*
X466332Y975360D02*
X467820Y976848D01*
X429260Y973872D02*
X430748Y975360D01*
X466332D01*
X456732Y1029267D02*
X467820Y1018179D01*
X448310Y1007540D02*
X461010D01*
X380671Y1020850D02*
X428800D01*
X408480Y995670D02*
Y1005810D01*
X375150Y962340D02*
X408480Y995670D01*
Y1005810D02*
X410210Y1007540D01*
X428800Y1020850D02*
X435610Y1014040D01*
Y1007540D02*
Y1014040D01*
X410210Y1050140D02*
Y1056640D01*
X435610Y1050140D02*
Y1056640D01*
X449740Y800260D02*
X453390Y803910D01*
X449740Y762000D02*
Y800260D01*
X484900Y733030D02*
X496570D01*
X477520Y740410D02*
X484900Y733030D01*
X650240Y756920D02*
X662120D01*
X671680Y766480D01*
X682192Y708780D02*
X687400Y713988D01*
X681450Y708780D02*
X682192D01*
X671670Y699000D02*
X681450Y708780D01*
X671670Y698500D02*
Y699000D01*
X682320Y716092D02*
Y750080D01*
X675640Y756760D02*
Y756920D01*
Y756760D02*
X682320Y750080D01*
X662320Y713860D02*
X680088D01*
X682320Y716092D01*
X661112Y669170D02*
X704200D01*
X608500Y698460D02*
X631822D01*
X661112Y669170D01*
X704200D02*
X709930Y663440D01*
Y662940D02*
Y663440D01*
X489810Y793130D02*
X491310D01*
X485260Y797680D02*
X489810Y793130D01*
X491310D02*
X495540Y788900D01*
Y787400D02*
Y788900D01*
X549740Y756960D02*
Y766088D01*
X510540Y785900D02*
Y787400D01*
X516890Y769380D02*
Y779550D01*
X510540Y785900D02*
X516890Y779550D01*
X476250Y701040D02*
X493790D01*
X496570Y703820D01*
X521543Y680063D02*
Y699645D01*
X498070Y656590D02*
X521543Y680063D01*
X608500Y717960D02*
X632710D01*
X651670Y699000D01*
Y698500D02*
Y699000D01*
X651510Y724670D02*
Y725170D01*
Y724670D02*
X662320Y713860D01*
X608500Y730960D02*
X634673D01*
X640192Y736480D01*
X660700D01*
X671510Y725670D01*
Y725170D02*
Y725670D01*
X650800Y724460D02*
X651510Y725170D01*
X608500Y724460D02*
X650800D01*
X643780Y750460D02*
X650240Y756920D01*
X637280Y743960D02*
X643780Y750460D01*
X608500Y743960D02*
X637280D01*
X498070Y641590D02*
X511690D01*
X496570D02*
X498070D01*
X529710Y623570D02*
Y625070D01*
X549300Y711020D02*
X549740Y711460D01*
X540103Y711020D02*
X549300D01*
X526623Y697541D02*
X540103Y711020D01*
X505148Y647280D02*
X526623Y668755D01*
X503760Y647280D02*
X505148D01*
X539418Y717520D02*
X549300D01*
X498070Y641590D02*
X503760Y647280D01*
X521543Y699645D02*
X539418Y717520D01*
X526623Y668755D02*
Y697541D01*
X650200Y756960D02*
X650240Y756920D01*
X608500Y756960D02*
X650200D01*
X608500Y750460D02*
X643780D01*
X473390Y803410D02*
Y803910D01*
Y803410D02*
X479120Y797680D01*
X516890Y754380D02*
X531387D01*
X535308Y750460D01*
X575310Y643730D02*
X575810D01*
X574810D02*
X575310D01*
X544710Y623570D02*
X554650D01*
X630840Y641350D02*
X652780D01*
X614908D02*
X630840D01*
X549740Y692400D02*
Y698460D01*
Y692400D02*
X575265Y666875D01*
X589383D01*
X614908Y641350D01*
X622180Y632690D02*
X630840Y641350D01*
X622180Y631190D02*
Y632690D01*
X575810Y643730D02*
X588350Y631190D01*
X607180D01*
X538555Y691137D02*
X569080Y660612D01*
X538555Y691137D02*
Y702288D01*
X569080Y649460D02*
Y660612D01*
X549300Y704520D02*
X549740Y704960D01*
X540787Y704520D02*
X549300D01*
X538555Y702288D02*
X540787Y704520D01*
X569080Y649460D02*
X574810Y643730D01*
X549300Y717520D02*
X549740Y717960D01*
X496570Y656590D02*
X498070D01*
X489452Y652360D02*
X492340D01*
X496570Y656590D01*
X471170Y643890D02*
X481980D01*
X484986Y646896D01*
Y647894D01*
X489452Y652360D01*
X496570Y689610D02*
X500800Y693840D01*
X507878D01*
X538498Y724460D01*
X549740D01*
X481540Y681990D02*
X484930Y685380D01*
X469900Y681990D02*
X481540D01*
X484930Y685380D02*
X492340D01*
X496570Y689610D01*
Y718820D02*
X513080D01*
X468630Y764540D02*
X479440D01*
X474030Y638810D02*
Y639310D01*
X537513Y730960D02*
X549740D01*
X513080Y718820D02*
X525373D01*
X537513Y730960D01*
X471010Y718820D02*
X496570D01*
X549740Y737460D02*
Y743960D01*
X500640D02*
X549740D01*
X496570Y748030D02*
X500640Y743960D01*
X495070Y748030D02*
X496570D01*
X485140Y757960D02*
X495070Y748030D01*
X485140Y757960D02*
Y758840D01*
X479440Y764540D02*
X485140Y758840D01*
D14*
X611530Y1558720D02*
D03*
X630530D02*
D03*
X621030Y1580720D02*
D03*
X671220Y1557450D02*
D03*
X690220D02*
D03*
X680720Y1579450D02*
D03*
X737260Y1556180D02*
D03*
X756260D02*
D03*
X746760Y1578180D02*
D03*
D15*
X684380Y1472610D02*
D03*
X690880Y1451610D02*
D03*
X677880D02*
D03*
X621030Y1472270D02*
D03*
X627530Y1451270D02*
D03*
X614530D02*
D03*
X740410Y1473540D02*
D03*
X746910Y1452540D02*
D03*
X733910D02*
D03*
X756920Y618150D02*
D03*
X750420Y639150D02*
D03*
X763420D02*
D03*
D16*
X616270Y1409700D02*
D03*
X636270D02*
D03*
X677070Y1410970D02*
D03*
X697070D02*
D03*
X734380D02*
D03*
X754380D02*
D03*
X693260Y1510030D02*
D03*
X673260D02*
D03*
X760410D02*
D03*
X740410D02*
D03*
X641350Y1508760D02*
D03*
X621350D02*
D03*
X449740Y762000D02*
D03*
X469740D02*
D03*
X453390Y803910D02*
D03*
X473390D02*
D03*
X729930Y662940D02*
D03*
X709930D02*
D03*
X671670Y698500D02*
D03*
X651670D02*
D03*
X1438910Y533400D02*
D03*
X1418910D02*
D03*
X1483360D02*
D03*
X1463360D02*
D03*
X1434940Y332740D02*
D03*
X1414940D02*
D03*
X651510Y725170D02*
D03*
X671510D02*
D03*
X450850Y720090D02*
D03*
X470850D02*
D03*
X449900Y681990D02*
D03*
X469900D02*
D03*
X451170Y643890D02*
D03*
X471170D02*
D03*
D17*
X429260Y942500D02*
D03*
Y962500D02*
D03*
X779780Y666910D02*
D03*
Y686910D02*
D03*
X1422400Y488000D02*
D03*
Y508000D02*
D03*
X575310Y623730D02*
D03*
X681990Y454500D02*
D03*
X652780Y621350D02*
D03*
Y641350D02*
D03*
X681990Y434500D02*
D03*
X1447800Y364490D02*
D03*
Y384490D02*
D03*
X1459230Y312740D02*
D03*
Y332740D02*
D03*
X575310Y643730D02*
D03*
X509270Y942340D02*
D03*
Y962340D02*
D03*
X482600D02*
D03*
Y942340D02*
D03*
X455930Y942660D02*
D03*
Y962660D02*
D03*
X400050Y962500D02*
D03*
Y942500D02*
D03*
X374650Y962340D02*
D03*
Y942340D02*
D03*
D18*
X765810Y419800D02*
D03*
D19*
Y396800D02*
D03*
D20*
X746760Y451550D02*
D03*
X759460D02*
D03*
X772160D02*
D03*
X784860D02*
D03*
D21*
X776310Y577850D02*
D03*
X755310Y571350D02*
D03*
Y584350D02*
D03*
D22*
X1410970Y571620D02*
D03*
Y586620D02*
D03*
X1270635Y360030D02*
D03*
Y375030D02*
D03*
X1389380Y443230D02*
D03*
Y428230D02*
D03*
X496570Y674610D02*
D03*
Y641590D02*
D03*
X1492250Y586740D02*
D03*
Y571740D02*
D03*
X1450340Y586620D02*
D03*
Y571620D02*
D03*
X1399540Y374410D02*
D03*
Y359410D02*
D03*
X1356360Y374650D02*
D03*
Y359650D02*
D03*
X1314450Y374650D02*
D03*
Y359650D02*
D03*
X516890Y769380D02*
D03*
Y754380D02*
D03*
X496570Y748030D02*
D03*
Y733030D02*
D03*
Y718820D02*
D03*
Y703820D02*
D03*
Y689610D02*
D03*
Y656590D02*
D03*
D23*
X1294690Y415290D02*
D03*
X1364690D02*
D03*
D24*
X1306830Y495300D02*
D03*
Y585300D02*
D03*
D25*
X1351830Y540300D02*
D03*
X1261830D02*
D03*
D26*
X594360Y551180D02*
D03*
X635460D02*
D03*
D27*
X461010Y1007540D02*
D03*
X448310D02*
D03*
X435610D02*
D03*
X422910D02*
D03*
X410210D02*
D03*
X397510D02*
D03*
X384810D02*
D03*
Y1056640D02*
D03*
X397510D02*
D03*
X410210D02*
D03*
X422910D02*
D03*
X435610D02*
D03*
X448310D02*
D03*
X461010D02*
D03*
D28*
X1409700Y407670D02*
D03*
X1422400D02*
D03*
X1435100D02*
D03*
X1447800D02*
D03*
Y461910D02*
D03*
X1435100D02*
D03*
X1422400D02*
D03*
X1409700D02*
D03*
D29*
X607180Y631190D02*
D03*
X622180D02*
D03*
X1400570Y488950D02*
D03*
X1385570D02*
D03*
X1399540Y506730D02*
D03*
X1384540D02*
D03*
X495540Y787400D02*
D03*
X510540D02*
D03*
X671830Y641350D02*
D03*
X686830D02*
D03*
X529710Y623570D02*
D03*
X544710D02*
D03*
D30*
X549740Y756960D02*
D03*
Y750460D02*
D03*
Y743960D02*
D03*
Y737460D02*
D03*
Y730960D02*
D03*
Y724460D02*
D03*
Y717960D02*
D03*
Y711460D02*
D03*
Y704960D02*
D03*
Y698460D02*
D03*
X608500D02*
D03*
Y704960D02*
D03*
Y711460D02*
D03*
Y717960D02*
D03*
Y724460D02*
D03*
Y730960D02*
D03*
Y737460D02*
D03*
Y743960D02*
D03*
Y750460D02*
D03*
Y756960D02*
D03*
D57*
X650240Y756920D02*
D03*
D58*
X675640D02*
D03*
D60*
X346749Y985876D02*
D03*
X343644Y967987D02*
D03*
D61*
X765370Y1505070D02*
X776920Y1493520D01*
X760410Y1509530D02*
X764870Y1505070D01*
X765370D01*
X760410Y1509530D02*
Y1510030D01*
X776920Y1493520D02*
X981710D01*
X1076960Y461480D02*
Y1398270D01*
X981710Y1493520D02*
X1076960Y1398270D01*
X693260Y1510530D02*
Y1538976D01*
Y1510030D02*
Y1510530D01*
X663140Y1531050D02*
Y1564804D01*
X666116Y1567780D01*
X641350Y1509260D02*
X663140Y1531050D01*
X666116Y1567780D02*
X676324D01*
X681616Y1562488D01*
Y1550620D02*
X693260Y1538976D01*
X681616Y1550620D02*
Y1562488D01*
X641350Y1508760D02*
Y1509260D01*
X693260Y1510530D02*
X729180Y1546450D01*
Y1563534D01*
X732156Y1566510D01*
X742364D01*
X748180Y1548826D02*
Y1560694D01*
Y1548826D02*
X760410Y1536596D01*
X742364Y1566510D02*
X748180Y1560694D01*
X760410Y1510030D02*
Y1536596D01*
D62*
X858990Y461480D02*
X1076960D01*
X1106170D01*
X765810Y419800D02*
X817310D01*
X858990Y461480D01*
X765810Y396800D02*
Y419800D01*
X772160Y451550D02*
X784860D01*
X759460D02*
X772160D01*
X597090Y476840D02*
X681990D01*
X757960Y452300D02*
X758710Y451550D01*
X744196Y474027D02*
X757960Y460263D01*
X758710Y451550D02*
X759460D01*
X757960Y452300D02*
Y460263D01*
X681990Y474027D02*
X744196D01*
X681990Y454500D02*
Y474027D01*
X677730Y596900D02*
X688340D01*
X701040Y584200D02*
X720090D01*
X688340Y596900D02*
X701040Y584200D01*
X688340Y596900D02*
X720090D01*
X688340D02*
X701040Y609600D01*
X720090D01*
Y596900D02*
Y609600D01*
Y584200D02*
Y596900D01*
X595820Y462280D02*
X597090Y463550D01*
Y437280D02*
Y463550D01*
Y412750D02*
Y437280D01*
X557530Y437280D02*
X597090D01*
X597090Y437280D01*
X557530Y462280D02*
X595820D01*
X597090Y463550D02*
Y476840D01*
X1413510Y426720D02*
Y441960D01*
X1428750Y426720D02*
Y441960D01*
X1443990D01*
X1428750Y426720D02*
X1443990D01*
Y441960D01*
X1413510D02*
X1428750D01*
X1413510Y426720D02*
X1428750D01*
X652780Y621350D02*
X653280D01*
X677730Y596900D01*
X635460Y551180D02*
Y604530D01*
X652280Y621350D01*
X652780D01*
X575310Y578230D02*
X594360Y559180D01*
X575310Y578230D02*
Y623730D01*
X594360Y551180D02*
Y559180D01*
X467360Y339090D02*
X491653Y363383D01*
X409340Y339090D02*
X467360D01*
X407530Y337280D02*
X409340Y339090D01*
X407530Y337280D02*
Y362280D01*
X491653Y363383D02*
Y540573D01*
X407530Y312280D02*
Y337280D01*
X557530Y412280D02*
X596620D01*
X597090Y412750D01*
X557530Y437280D02*
Y462280D01*
Y412280D02*
Y437280D01*
X574810Y623730D02*
X575310D01*
X491653Y540573D02*
X574810Y623730D01*
D63*
X1516836Y586740D02*
X1523186Y593090D01*
X1308270Y586740D02*
X1492250D01*
X1523186Y593090D02*
X1525270D01*
Y580390D02*
Y593090D01*
X1523186Y580390D02*
X1525270D01*
X1516836Y586740D02*
X1523186Y580390D01*
X1492250Y586740D02*
X1495250Y583740D01*
X1492250Y586740D02*
X1516836D01*
X1495250Y583740D02*
X1499878D01*
X1271460Y374205D02*
X1398715D01*
X1438417Y554535D02*
X1494673D01*
X1426870Y542988D02*
X1438417Y554535D01*
X1426870Y541860D02*
Y542988D01*
X1418910Y533900D02*
X1426870Y541860D01*
X1418910Y533400D02*
Y533900D01*
X1506220Y566082D02*
Y577398D01*
X1494673Y554535D02*
X1506220Y566082D01*
X1499878Y583740D02*
X1506220Y577398D01*
X1306830Y585300D02*
X1308270Y586740D01*
X1306830Y495300D02*
X1364690Y437440D01*
Y415290D02*
Y437440D01*
X1386380Y440230D02*
X1389380Y443230D01*
X1381752Y440230D02*
X1386380D01*
X1373190Y431668D02*
X1381752Y440230D01*
X1373190Y423790D02*
Y431668D01*
X1364690Y415290D02*
X1373190Y423790D01*
X1390880Y443230D02*
X1404435Y456785D01*
X1408950D01*
X1409700Y457535D01*
X1421650Y406920D02*
X1422400Y407670D01*
X1401040Y374410D02*
X1421650Y395020D01*
Y406920D01*
X1106170Y411480D02*
X1142620Y375030D01*
X1270635D01*
X1409700Y457535D02*
Y461910D01*
X1389380Y443230D02*
X1390880D01*
X1399540Y374410D02*
X1401040D01*
X1270635Y375030D02*
X1271460Y374205D01*
D64*
X1850390Y857250D02*
D03*
X989330D02*
D03*
X1850390Y1436370D02*
D03*
X989330D02*
D03*
X355600Y1320800D02*
D03*
Y1346200D02*
D03*
Y1371600D02*
D03*
Y1422400D02*
D03*
Y1447800D02*
D03*
Y1473200D02*
D03*
X406400Y1320800D02*
D03*
Y1346200D02*
D03*
Y1371600D02*
D03*
X457200Y1320800D02*
D03*
Y1346200D02*
D03*
Y1371600D02*
D03*
X407670Y1422400D02*
D03*
Y1447800D02*
D03*
Y1473200D02*
D03*
X458470Y1422400D02*
D03*
Y1447800D02*
D03*
Y1473200D02*
D03*
X965200Y528320D02*
D03*
X287020Y1029970D02*
D03*
X304800Y1371600D02*
D03*
Y1346200D02*
D03*
Y1320800D02*
D03*
X990600Y528320D02*
D03*
X1016000D02*
D03*
X312420Y1029970D02*
D03*
X337820D02*
D03*
X478790Y1576070D02*
D03*
X504190D02*
D03*
X529590D02*
D03*
X554990D02*
D03*
X877570Y1336040D02*
D03*
Y1310640D02*
D03*
Y1285240D02*
D03*
Y1259840D02*
D03*
Y1234440D02*
D03*
X852170Y878840D02*
D03*
Y853440D02*
D03*
Y1336040D02*
D03*
Y1310640D02*
D03*
Y1285240D02*
D03*
Y1259840D02*
D03*
Y1234440D02*
D03*
X877570Y853440D02*
D03*
X852170Y904240D02*
D03*
Y929640D02*
D03*
Y955040D02*
D03*
Y980440D02*
D03*
Y1005840D02*
D03*
Y1031240D02*
D03*
Y1056640D02*
D03*
Y1082040D02*
D03*
Y1107440D02*
D03*
Y1132840D02*
D03*
Y1158240D02*
D03*
Y1183640D02*
D03*
Y1209040D02*
D03*
X877570D02*
D03*
Y1183640D02*
D03*
Y1158240D02*
D03*
Y1132840D02*
D03*
Y1107440D02*
D03*
Y1082040D02*
D03*
Y1056640D02*
D03*
Y1031240D02*
D03*
Y1005840D02*
D03*
Y980440D02*
D03*
Y955040D02*
D03*
Y929640D02*
D03*
Y904240D02*
D03*
Y878840D02*
D03*
X337820Y977900D02*
D03*
X312420D02*
D03*
X287020D02*
D03*
X337820Y927100D02*
D03*
X312420D02*
D03*
X287020D02*
D03*
X337820Y876300D02*
D03*
X312420D02*
D03*
X287020D02*
D03*
D65*
X798830Y885190D02*
D03*
D66*
Y910590D02*
D03*
Y935990D02*
D03*
Y961390D02*
D03*
Y986790D02*
D03*
Y1012190D02*
D03*
Y1037590D02*
D03*
Y1062990D02*
D03*
Y1088390D02*
D03*
Y1113790D02*
D03*
Y1139190D02*
D03*
Y1164590D02*
D03*
Y1189990D02*
D03*
Y1215390D02*
D03*
Y1240790D02*
D03*
Y1266190D02*
D03*
Y1291590D02*
D03*
Y1316990D02*
D03*
Y1342390D02*
D03*
X544830D02*
D03*
Y1316990D02*
D03*
Y1291590D02*
D03*
Y1266190D02*
D03*
Y1240790D02*
D03*
Y1215390D02*
D03*
Y1189990D02*
D03*
Y1164590D02*
D03*
Y1139190D02*
D03*
Y1113790D02*
D03*
Y1088390D02*
D03*
Y1062990D02*
D03*
Y1037590D02*
D03*
Y1012190D02*
D03*
Y986790D02*
D03*
Y961390D02*
D03*
Y935990D02*
D03*
Y910590D02*
D03*
Y885190D02*
D03*
D67*
X1823860Y463220D02*
D03*
Y413220D02*
D03*
Y438220D02*
D03*
X1673860Y363220D02*
D03*
Y313220D02*
D03*
X1106170Y461480D02*
D03*
Y411480D02*
D03*
Y436480D02*
D03*
X956170Y361480D02*
D03*
Y311480D02*
D03*
X407530Y312280D02*
D03*
Y362280D02*
D03*
X557530Y437280D02*
D03*
Y412280D02*
D03*
Y462280D02*
D03*
D68*
X1673860Y338220D02*
D03*
X956170Y336480D02*
D03*
X407530Y337280D02*
D03*
D69*
X275590Y1098550D02*
D03*
D70*
X300990D02*
D03*
X326390D02*
D03*
X351790D02*
D03*
X377190D02*
D03*
X402590D02*
D03*
X427990D02*
D03*
X453390D02*
D03*
X427990Y1174750D02*
D03*
X402590D02*
D03*
X377190D02*
D03*
X351790D02*
D03*
X326390D02*
D03*
X300990D02*
D03*
X275590D02*
D03*
X453390D02*
D03*
D71*
X340190Y694690D02*
D03*
Y719690D02*
D03*
Y669690D02*
D03*
Y744690D02*
D03*
D72*
Y644690D02*
D03*
D73*
X702993Y1049118D02*
D03*
X821690Y1062990D02*
D03*
X1244600Y412750D02*
D03*
X615950Y1391920D02*
D03*
X401320Y1076960D02*
D03*
X455930Y986790D02*
D03*
X496570Y769620D02*
D03*
X1525270Y593090D02*
D03*
X777240Y1410970D02*
D03*
X1525270Y580390D02*
D03*
X476250Y662940D02*
D03*
X723900Y445770D02*
D03*
X754380Y556260D02*
D03*
X720090Y584200D02*
D03*
Y596900D02*
D03*
Y609600D02*
D03*
X1443990Y441960D02*
D03*
Y426720D02*
D03*
X1428750Y441960D02*
D03*
Y426720D02*
D03*
X1413510Y441960D02*
D03*
Y426720D02*
D03*
X441960Y922020D02*
D03*
X419100Y984250D02*
D03*
X372110Y988060D02*
D03*
X477520Y740410D02*
D03*
X476250Y701040D02*
D03*
M02*
