G04*
G04 #@! TF.GenerationSoftware,Altium Limited,Altium Designer,22.10.1 (41)*
G04*
G04 Layer_Color=16711935*
%FSLAX44Y44*%
%MOMM*%
G71*
G04*
G04 #@! TF.SameCoordinates,AEC8B882-0F2C-4FBA-8872-4E3C41141EBA*
G04*
G04*
G04 #@! TF.FilePolarity,Positive*
G04*
G01*
G75*
%ADD10C,0.2000*%
G36*
X677335Y759176D02*
X678204D01*
Y758455D01*
X677335D01*
Y756920D01*
X676549D01*
Y758455D01*
X673766D01*
Y759176D01*
X676697Y763318D01*
X677335D01*
Y759176D01*
D02*
G37*
G36*
X672019Y756920D02*
X671233D01*
Y761922D01*
X671224Y761913D01*
X671178Y761876D01*
X671122Y761820D01*
X671030Y761755D01*
X670928Y761672D01*
X670799Y761580D01*
X670651Y761478D01*
X670484Y761376D01*
X670475D01*
X670466Y761367D01*
X670410Y761330D01*
X670318Y761284D01*
X670207Y761228D01*
X670078Y761164D01*
X669939Y761099D01*
X669800Y761034D01*
X669661Y760979D01*
Y761737D01*
X669671D01*
X669689Y761755D01*
X669726Y761765D01*
X669772Y761792D01*
X669828Y761820D01*
X669893Y761857D01*
X670050Y761949D01*
X670235Y762051D01*
X670420Y762181D01*
X670614Y762328D01*
X670808Y762486D01*
X670817Y762495D01*
X670826Y762504D01*
X670854Y762532D01*
X670891Y762560D01*
X670974Y762652D01*
X671085Y762763D01*
X671196Y762893D01*
X671316Y763040D01*
X671418Y763188D01*
X671510Y763346D01*
X672019D01*
Y756920D01*
D02*
G37*
G36*
X665982Y763309D02*
X666065D01*
X666259Y763299D01*
X666462Y763272D01*
X666684Y763244D01*
X666888Y763198D01*
X666989Y763170D01*
X667073Y763142D01*
X667082D01*
X667091Y763133D01*
X667147Y763105D01*
X667230Y763068D01*
X667331Y763003D01*
X667442Y762920D01*
X667563Y762809D01*
X667674Y762680D01*
X667785Y762532D01*
Y762523D01*
X667794Y762514D01*
X667831Y762458D01*
X667868Y762365D01*
X667923Y762245D01*
X667970Y762107D01*
X668016Y761940D01*
X668043Y761765D01*
X668053Y761570D01*
Y761561D01*
Y761543D01*
Y761506D01*
X668043Y761460D01*
Y761395D01*
X668034Y761330D01*
X667997Y761173D01*
X667942Y760988D01*
X667868Y760794D01*
X667757Y760600D01*
X667683Y760507D01*
X667609Y760415D01*
X667600Y760406D01*
X667590Y760396D01*
X667563Y760368D01*
X667526Y760341D01*
X667479Y760304D01*
X667424Y760267D01*
X667350Y760221D01*
X667276Y760165D01*
X667184Y760119D01*
X667082Y760073D01*
X666971Y760017D01*
X666851Y759971D01*
X666712Y759934D01*
X666573Y759888D01*
X666416Y759860D01*
X666250Y759832D01*
X666268Y759823D01*
X666305Y759805D01*
X666361Y759768D01*
X666435Y759731D01*
X666601Y759629D01*
X666684Y759564D01*
X666758Y759509D01*
X666777Y759490D01*
X666823Y759444D01*
X666897Y759370D01*
X666989Y759277D01*
X667091Y759148D01*
X667211Y759009D01*
X667331Y758843D01*
X667461Y758658D01*
X668561Y756920D01*
X667507D01*
X666666Y758251D01*
Y758260D01*
X666647Y758279D01*
X666629Y758307D01*
X666601Y758344D01*
X666536Y758445D01*
X666453Y758575D01*
X666351Y758714D01*
X666250Y758861D01*
X666148Y759000D01*
X666056Y759130D01*
X666046Y759139D01*
X666019Y759176D01*
X665972Y759231D01*
X665908Y759296D01*
X665769Y759435D01*
X665695Y759499D01*
X665621Y759555D01*
X665612Y759564D01*
X665593Y759573D01*
X665556Y759592D01*
X665501Y759620D01*
X665445Y759647D01*
X665381Y759675D01*
X665233Y759721D01*
X665223D01*
X665205Y759731D01*
X665168D01*
X665122Y759740D01*
X665057Y759749D01*
X664983D01*
X664881Y759758D01*
X663791D01*
Y756920D01*
X662940D01*
Y763318D01*
X665908D01*
X665982Y763309D01*
D02*
G37*
%LPC*%
G36*
X676549Y762042D02*
X674534Y759176D01*
X676549D01*
Y762042D01*
D02*
G37*
G36*
X665806Y762606D02*
X663791D01*
Y760489D01*
X665695D01*
X665806Y760498D01*
X665935Y760507D01*
X666083Y760516D01*
X666231Y760535D01*
X666379Y760563D01*
X666509Y760600D01*
X666527Y760609D01*
X666564Y760627D01*
X666620Y760655D01*
X666694Y760692D01*
X666777Y760748D01*
X666860Y760812D01*
X666943Y760895D01*
X667008Y760988D01*
X667017Y760997D01*
X667036Y761034D01*
X667063Y761090D01*
X667100Y761164D01*
X667128Y761247D01*
X667156Y761339D01*
X667174Y761450D01*
X667184Y761561D01*
Y761570D01*
Y761580D01*
X667174Y761635D01*
X667165Y761718D01*
X667147Y761829D01*
X667100Y761940D01*
X667045Y762070D01*
X666962Y762190D01*
X666851Y762310D01*
X666832Y762319D01*
X666786Y762356D01*
X666712Y762402D01*
X666592Y762458D01*
X666453Y762514D01*
X666268Y762560D01*
X666056Y762597D01*
X665806Y762606D01*
D02*
G37*
%LPD*%
D10*
X643440Y769920D02*
X682440D01*
Y743920D02*
Y769920D01*
X643440Y743920D02*
X682440D01*
X643440D02*
Y769920D01*
M02*
