M48
;Layer_Color=9474304
;FILE_FORMAT=4:4
METRIC,LZ
;TYPE=PLATED
T1F00S00C0.2540
T2F00S00C0.6500
T3F00S00C0.7112
T4F00S00C0.7620
T5F00S00C0.8890
T6F00S00C0.9000
T7F00S00C1.0000
T8F00S00C1.0200
T9F00S00C1.7000
%
T01
X0141351Y0042672
X0142875
X0144399
Y0044196
X0142875
X0141351
T02
X0065024Y0075692
X0067564
T03
X012446Y0041275
X0152527Y0058039
Y0059309
X0075438Y0055626
X0072009Y005842
Y005969
Y006096
X007239Y0044577
X0047625Y0066294
Y0070104
X0047752Y0074041
X0049657Y0076962
X0037211Y0098806
X004191Y0098425
X0045593Y0098679
X0044196Y0092202
X0040132Y0107696
X00702993Y01049118
X0082169Y0106299
X0077724Y0141097
X0061595Y0139192
T04
X009652Y0052832
X009906
X01016
X0033782Y008763
X0031242
X0028702
Y009271
X0031242
X0033782
Y009779
X0031242
X0028702
Y0102997
X0031242
X0033782
X0098933Y0085725
X0185039
Y0143637
X0098933
X0045847Y014478
Y014224
X0040767
Y014478
Y014732
X0045847
X004572Y013716
Y013462
Y013208
X004064
Y013462
Y013716
X0047879Y0157607
X0050419
X0052959
X0055499
X003556Y014732
Y014478
Y014224
Y013716
Y013462
Y013208
X003048
Y013462
Y013716
T05
X0085217Y0085344
Y0087884
Y0090424
Y0092964
Y0095504
Y0098044
Y0100584
Y0103124
Y0105664
Y0108204
Y0110744
Y0113284
Y0115824
Y0118364
X0087757
Y0115824
Y0113284
Y0110744
Y0108204
Y0105664
Y0103124
Y0100584
Y0098044
Y0095504
Y0092964
Y0090424
Y0087884
Y0085344
Y0120904
Y0123444
Y0125984
Y0128524
Y0131064
Y0133604
X0085217
Y0131064
Y0128524
Y0125984
Y0123444
Y0120904
T06
X0027559Y0109855
X0030099
X0032639
X0035179
X0037719
Y0117475
X0035179
X0032639
X0030099
X0027559
X0040259
X0042799
X0045339
Y0109855
X0042799
X0040259
T07
X0034019Y0064469
Y0066969
Y0069469
Y0071969
Y0074469
T08
X0054483Y0088519
Y0091059
Y0093599
Y0096139
Y0098679
Y0101219
Y0103759
Y0106299
Y0108839
Y0111379
Y0113919
Y0116459
Y0118999
X0079883
Y0116459
Y0113919
Y0111379
Y0108839
Y0106299
Y0103759
Y0101219
Y0098679
Y0096139
Y0093599
Y0091059
Y0088519
Y0121539
Y0124079
Y0126619
Y0129159
Y0131699
Y0134239
X0054483
Y0131699
Y0129159
Y0126619
Y0124079
Y0121539
T09
X0040753Y0031228
Y0033728
Y0036228
X0095617Y0036148
Y0033648
Y0031148
X0167386Y0031322
Y0033822
Y0036322
X0182386Y0041322
Y0043822
Y0046322
X0110617Y0046148
Y0043648
Y0041148
X0055753Y0041228
Y0043728
Y0046228
M30
