G04*
G04 #@! TF.GenerationSoftware,Altium Limited,Altium Designer,22.10.1 (41)*
G04*
G04 Layer_Color=65535*
%FSLAX44Y44*%
%MOMM*%
G71*
G04*
G04 #@! TF.SameCoordinates,AEC8B882-0F2C-4FBA-8872-4E3C41141EBA*
G04*
G04*
G04 #@! TF.FilePolarity,Positive*
G04*
G01*
G75*
%ADD10C,0.2000*%
%ADD11C,0.1000*%
%ADD12C,0.1270*%
%ADD13C,0.2540*%
D10*
X818530Y883990D02*
G03*
X818530Y883990I-1000J0D01*
G01*
X341190Y612190D02*
G03*
X341190Y612190I-1000J0D01*
G01*
X1306830Y463300D02*
G03*
X1306830Y464300I0J500D01*
G01*
D02*
G03*
X1306830Y463300I0J-500D01*
G01*
D02*
G03*
X1306830Y464300I0J500D01*
G01*
X468010Y1075640D02*
G03*
X468010Y1075640I-1000J0D01*
G01*
X1531860Y265220D02*
X1905860D01*
Y484220D01*
X1531860D02*
X1905860D01*
X1531860Y265220D02*
Y484220D01*
X814170Y263480D02*
X1188170D01*
Y482480D01*
X814170D02*
X1188170D01*
X814170Y263480D02*
Y482480D01*
X606530Y1567470D02*
Y1571970D01*
X635530D01*
Y1567470D02*
Y1571970D01*
X606530Y1567470D02*
X635530D01*
X606030Y1553470D02*
Y1563970D01*
X666220Y1566200D02*
Y1570700D01*
X695220D01*
Y1566200D02*
Y1570700D01*
X666220Y1566200D02*
X695220D01*
X665720Y1552200D02*
Y1562700D01*
X732260Y1564930D02*
Y1569430D01*
X761260D01*
Y1564930D02*
Y1569430D01*
X732260Y1564930D02*
X761260D01*
X731760Y1550930D02*
Y1561430D01*
X672880Y1446360D02*
Y1456860D01*
X674380Y1460360D02*
X694380D01*
Y1463860D01*
X674380D02*
X694380D01*
X674380Y1460360D02*
Y1463860D01*
X609530Y1446020D02*
Y1456520D01*
X611030Y1460020D02*
X631030D01*
Y1463520D01*
X611030D02*
X631030D01*
X611030Y1460020D02*
Y1463520D01*
X626270Y1403200D02*
Y1416200D01*
X687070Y1404470D02*
Y1417470D01*
X744380Y1404470D02*
Y1417470D01*
X728910Y1447290D02*
Y1457790D01*
X730410Y1461290D02*
X750410D01*
Y1464790D01*
X730410D02*
X750410D01*
X730410Y1461290D02*
Y1464790D01*
X683260Y1503530D02*
Y1516530D01*
X750410Y1503530D02*
Y1516530D01*
X631350Y1502260D02*
Y1515260D01*
X422760Y952500D02*
X435760D01*
X741310Y410180D02*
Y439300D01*
X790310D01*
Y410180D02*
Y439300D01*
X768420Y633900D02*
Y644400D01*
X746920Y630400D02*
X766920D01*
X746920Y626900D02*
Y630400D01*
Y626900D02*
X766920D01*
Y630400D01*
X750060Y589350D02*
X760560D01*
X764060Y567850D02*
Y587850D01*
Y567850D02*
X767560D01*
Y587850D01*
X764060D02*
X767560D01*
X773280Y676910D02*
X786280D01*
X1283690Y444810D02*
X1369390D01*
X1289990Y385770D02*
X1369390D01*
X1415900Y498000D02*
X1428900D01*
X1404250Y418790D02*
Y450790D01*
X1453250D01*
Y418790D02*
Y450790D01*
X1404250Y418790D02*
X1453250D01*
X1402950Y400040D02*
Y415290D01*
X265530Y264280D02*
Y483280D01*
X639530D01*
Y264280D02*
Y483280D01*
X265530Y264280D02*
X639530D01*
X644440Y768920D02*
X681440D01*
Y744920D02*
Y747420D01*
Y766420D02*
Y768920D01*
X644440Y744920D02*
X681440D01*
X644440D02*
Y747420D01*
Y766420D02*
Y768920D01*
X646280Y631350D02*
X659280D01*
X459740Y755500D02*
Y768500D01*
X463390Y797410D02*
Y810410D01*
X719930Y656440D02*
Y669440D01*
X661670Y692000D02*
Y705000D01*
X560620Y760210D02*
X597620D01*
Y695210D02*
Y760210D01*
X560620Y695210D02*
X597620D01*
X560620D02*
Y760210D01*
X542370Y762710D02*
X557120D01*
X675490Y444500D02*
X688490D01*
X1428910Y526900D02*
Y539900D01*
X1473360Y526900D02*
Y539900D01*
X1424940Y326240D02*
Y339240D01*
X1441300Y374490D02*
X1454300D01*
X1452730Y322740D02*
X1465730D01*
X661510Y718670D02*
Y731670D01*
X460850Y713590D02*
Y726590D01*
X459900Y675490D02*
Y688490D01*
X461170Y637390D02*
Y650390D01*
X568810Y633730D02*
X581810D01*
X502770Y952340D02*
X515770D01*
X476100D02*
X489100D01*
X449430Y952660D02*
X462430D01*
X393550Y952500D02*
X406550D01*
X368150Y952340D02*
X381150D01*
D11*
X1526860Y338220D02*
G03*
X1525860Y338220I-500J0D01*
G01*
D02*
G03*
X1526860Y338220I500J0D01*
G01*
X809170Y336480D02*
G03*
X808170Y336480I-500J0D01*
G01*
D02*
G03*
X809170Y336480I500J0D01*
G01*
X784810Y462180D02*
G03*
X785810Y462180I500J0D01*
G01*
D02*
G03*
X784810Y462180I-500J0D01*
G01*
X571910Y552180D02*
G03*
X572910Y552180I500J0D01*
G01*
D02*
G03*
X571910Y552180I-500J0D01*
G01*
D02*
G03*
X572910Y552180I500J0D01*
G01*
X259530Y337280D02*
G03*
X260530Y337280I500J0D01*
G01*
D02*
G03*
X259530Y337280I-500J0D01*
G01*
D12*
X275590Y1137150D02*
G03*
X263390Y1149350I-12200J0D01*
G01*
Y1123950D02*
G03*
X275590Y1136150I0J12200D01*
G01*
X811330Y872690D02*
Y1354690D01*
X532330Y872690D02*
Y1354690D01*
Y872690D02*
X581830D01*
X761830D02*
X811330D01*
X761830Y810690D02*
Y872690D01*
X581830Y810690D02*
X761830D01*
X581830D02*
Y872690D01*
X712530Y1354690D02*
X811330D01*
X712530D02*
Y1363690D01*
X631230D02*
X712530D01*
X631230Y1354690D02*
Y1363690D01*
X532330Y1354690D02*
X631230D01*
X263390Y1104900D02*
Y1123950D01*
Y1149350D02*
Y1168400D01*
X269240D01*
X263390Y1104900D02*
X266490D01*
X374190Y620190D02*
Y769190D01*
X316690Y620190D02*
X374190D01*
X316690D02*
Y769190D01*
X374190D01*
X378610Y1012590D02*
Y1051590D01*
X467210Y1012590D02*
Y1051590D01*
X280670Y1052828D02*
Y1045210D01*
X284479D01*
X285748Y1046480D01*
Y1047749D01*
X284479Y1049019D01*
X280670D01*
X284479D01*
X285748Y1050288D01*
Y1051558D01*
X284479Y1052828D01*
X280670D01*
X289557Y1050288D02*
X292096D01*
X293366Y1049019D01*
Y1045210D01*
X289557D01*
X288288Y1046480D01*
X289557Y1047749D01*
X293366D01*
X295905Y1045210D02*
X298444D01*
X297175D01*
Y1052828D01*
X295905D01*
X302253Y1045210D02*
X304792D01*
X303523D01*
Y1052828D01*
X302253D01*
X309871Y1050288D02*
X312410D01*
X313679Y1049019D01*
Y1045210D01*
X309871D01*
X308601Y1046480D01*
X309871Y1047749D01*
X313679D01*
X316218Y1045210D02*
X320027D01*
X321297Y1046480D01*
X320027Y1047749D01*
X317488D01*
X316218Y1049019D01*
X317488Y1050288D01*
X321297D01*
X325106Y1051558D02*
Y1050288D01*
X323836D01*
X326375D01*
X325106D01*
Y1046480D01*
X326375Y1045210D01*
X337802D02*
Y1052828D01*
X341610D01*
X342880Y1051558D01*
Y1049019D01*
X341610Y1047749D01*
X337802D01*
X346689Y1045210D02*
X349228D01*
X350497Y1046480D01*
Y1049019D01*
X349228Y1050288D01*
X346689D01*
X345419Y1049019D01*
Y1046480D01*
X346689Y1045210D01*
X354306Y1051558D02*
Y1050288D01*
X353037D01*
X355576D01*
X354306D01*
Y1046480D01*
X355576Y1045210D01*
X492126Y764539D02*
X490857Y765809D01*
X488318D01*
X487048Y764539D01*
Y759461D01*
X488318Y758191D01*
X490857D01*
X492126Y759461D01*
X494666Y758191D02*
X497205D01*
X495935D01*
Y765809D01*
X494666Y764539D01*
X501014D02*
X502283Y765809D01*
X504822D01*
X506092Y764539D01*
Y763270D01*
X504822Y762000D01*
X503553D01*
X504822D01*
X506092Y760730D01*
Y759461D01*
X504822Y758191D01*
X502283D01*
X501014Y759461D01*
D13*
X913130Y633730D02*
Y1537970D01*
X1944370Y633730D02*
Y1537970D01*
X913130D02*
X1944370D01*
X913130Y633730D02*
X1944370D01*
X1657350Y502920D02*
X1667507D01*
X1814830Y502918D02*
X1824987D01*
X1819908Y507997D02*
Y497840D01*
X273054Y1324607D02*
X270515Y1322068D01*
Y1316989D01*
X273054Y1314450D01*
X275593D01*
X278132Y1316989D01*
Y1322068D01*
X280672Y1324607D01*
X283211D01*
X285750Y1322068D01*
Y1316989D01*
X283211Y1314450D01*
X285750Y1337303D02*
Y1332224D01*
X283211Y1329685D01*
X278132D01*
X275593Y1332224D01*
Y1337303D01*
X278132Y1339842D01*
X280672D01*
Y1329685D01*
X275593Y1344920D02*
X285750D01*
X280672D01*
X278132Y1347459D01*
X275593Y1349998D01*
Y1352538D01*
Y1360155D02*
X285750Y1365234D01*
X275593Y1370312D01*
X285750Y1377930D02*
Y1383008D01*
X283211Y1385547D01*
X278132D01*
X275593Y1383008D01*
Y1377930D01*
X278132Y1375390D01*
X283211D01*
X285750Y1377930D01*
X1134110Y501648D02*
X1144267D01*
X1139188Y506727D02*
Y496570D01*
X976630Y501650D02*
X986787D01*
X272094Y1012027D02*
X265430D01*
Y1007028D01*
X268762Y1008695D01*
X270428D01*
X272094Y1007028D01*
Y1003696D01*
X270428Y1002030D01*
X267096D01*
X265430Y1003696D01*
X275427Y1012027D02*
Y1005362D01*
X278759Y1002030D01*
X282091Y1005362D01*
Y1012027D01*
X295420D02*
Y1002030D01*
Y1007028D01*
X302085D01*
Y1012027D01*
Y1002030D01*
X310415D02*
X307083D01*
X305417Y1003696D01*
Y1007028D01*
X307083Y1008695D01*
X310415D01*
X312082Y1007028D01*
Y1005362D01*
X305417D01*
X317080Y1008695D02*
X320412D01*
X322078Y1007028D01*
Y1002030D01*
X317080D01*
X315414Y1003696D01*
X317080Y1005362D01*
X322078D01*
X332075Y1012027D02*
Y1002030D01*
X327077D01*
X325411Y1003696D01*
Y1007028D01*
X327077Y1008695D01*
X332075D01*
X340406Y1002030D02*
X337074D01*
X335407Y1003696D01*
Y1007028D01*
X337074Y1008695D01*
X340406D01*
X342072Y1007028D01*
Y1005362D01*
X335407D01*
X345404Y1008695D02*
Y1002030D01*
Y1005362D01*
X347070Y1007028D01*
X348736Y1008695D01*
X350403D01*
X355401Y1002030D02*
X360399D01*
X362066Y1003696D01*
X360399Y1005362D01*
X357067D01*
X355401Y1007028D01*
X357067Y1008695D01*
X362066D01*
X553720Y501648D02*
X563877D01*
X558798Y506727D02*
Y496570D01*
X403860Y501650D02*
X414017D01*
X677799Y1082072D02*
Y1094768D01*
X675260Y1097307D01*
X670182D01*
X667642Y1094768D01*
Y1082072D01*
X662564Y1097307D02*
X657486D01*
X660025D01*
Y1082072D01*
X662564Y1084611D01*
X462658Y1504818D02*
X457579D01*
X460118D01*
Y1492122D01*
X457579Y1489583D01*
X455040D01*
X452501Y1492122D01*
X467736Y1489583D02*
X472814D01*
X470275D01*
Y1504818D01*
X467736Y1502279D01*
X488050Y1489583D02*
Y1504818D01*
X480432Y1497200D01*
X490589D01*
X461388Y1403218D02*
X456309D01*
X458848D01*
Y1390522D01*
X456309Y1387983D01*
X453770D01*
X451231Y1390522D01*
X466466Y1387983D02*
X471544D01*
X469005D01*
Y1403218D01*
X466466Y1400679D01*
X489319Y1387983D02*
X479162D01*
X489319Y1398140D01*
Y1400679D01*
X486780Y1403218D01*
X481701D01*
X479162Y1400679D01*
X411858Y1504818D02*
X406779D01*
X409319D01*
Y1492122D01*
X406779Y1489583D01*
X404240D01*
X401701Y1492122D01*
X416936Y1489583D02*
X422014D01*
X419475D01*
Y1504818D01*
X416936Y1502279D01*
X429632Y1489583D02*
X434710D01*
X432171D01*
Y1504818D01*
X429632Y1502279D01*
X410588Y1403218D02*
X405509D01*
X408049D01*
Y1390522D01*
X405509Y1387983D01*
X402970D01*
X400431Y1390522D01*
X425823Y1403218D02*
X415666D01*
Y1395600D01*
X420744Y1398140D01*
X423284D01*
X425823Y1395600D01*
Y1390522D01*
X423284Y1387983D01*
X418205D01*
X415666Y1390522D01*
X359788Y1504818D02*
X354709D01*
X357248D01*
Y1492122D01*
X354709Y1489583D01*
X352170D01*
X349631Y1492122D01*
X372484Y1489583D02*
Y1504818D01*
X364866Y1497200D01*
X375023D01*
X359788Y1403218D02*
X354709D01*
X357248D01*
Y1390522D01*
X354709Y1387983D01*
X352170D01*
X349631Y1390522D01*
X364866Y1400679D02*
X367405Y1403218D01*
X372484D01*
X375023Y1400679D01*
Y1398140D01*
X372484Y1395600D01*
X369944D01*
X372484D01*
X375023Y1393061D01*
Y1390522D01*
X372484Y1387983D01*
X367405D01*
X364866Y1390522D01*
X1231933Y1562097D02*
X1226855D01*
X1229394D01*
Y1549401D01*
X1226855Y1546862D01*
X1224316D01*
X1221777Y1549401D01*
X1244629Y1546862D02*
X1239551D01*
X1237012Y1549401D01*
Y1554479D01*
X1239551Y1557018D01*
X1244629D01*
X1247168Y1554479D01*
Y1551940D01*
X1237012D01*
X1254786Y1559557D02*
Y1557018D01*
X1252247D01*
X1257325D01*
X1254786D01*
Y1549401D01*
X1257325Y1546862D01*
X1264943D02*
X1272560D01*
X1275099Y1549401D01*
X1272560Y1551940D01*
X1267482D01*
X1264943Y1554479D01*
X1267482Y1557018D01*
X1275099D01*
X1282717Y1546862D02*
X1287795D01*
X1290334Y1549401D01*
Y1554479D01*
X1287795Y1557018D01*
X1282717D01*
X1280178Y1554479D01*
Y1549401D01*
X1282717Y1546862D01*
X1295413D02*
Y1557018D01*
X1303030D01*
X1305569Y1554479D01*
Y1546862D01*
X1336040Y1562097D02*
X1325883D01*
Y1554479D01*
X1330961D01*
X1325883D01*
Y1546862D01*
X1343657D02*
X1348736D01*
X1351275Y1549401D01*
Y1554479D01*
X1348736Y1557018D01*
X1343657D01*
X1341118Y1554479D01*
Y1549401D01*
X1343657Y1546862D01*
X1358892D02*
X1363971D01*
X1366510Y1549401D01*
Y1554479D01*
X1363971Y1557018D01*
X1358892D01*
X1356353Y1554479D01*
Y1549401D01*
X1358892Y1546862D01*
X1374127Y1559557D02*
Y1557018D01*
X1371588D01*
X1376667D01*
X1374127D01*
Y1549401D01*
X1376667Y1546862D01*
X1384284Y1541783D02*
Y1557018D01*
X1391902D01*
X1394441Y1554479D01*
Y1549401D01*
X1391902Y1546862D01*
X1384284D01*
X1399519Y1557018D02*
Y1546862D01*
Y1551940D01*
X1402058Y1554479D01*
X1404597Y1557018D01*
X1407137D01*
X1414754Y1546862D02*
X1419832D01*
X1417293D01*
Y1557018D01*
X1414754D01*
X1427450Y1546862D02*
Y1557018D01*
X1435068D01*
X1437607Y1554479D01*
Y1546862D01*
X1445224Y1559557D02*
Y1557018D01*
X1442685D01*
X1447763D01*
X1445224D01*
Y1549401D01*
X1447763Y1546862D01*
X308988Y1403218D02*
X303909D01*
X306448D01*
Y1390522D01*
X303909Y1387983D01*
X301370D01*
X298831Y1390522D01*
X314066Y1387983D02*
X319144D01*
X316605D01*
Y1403218D01*
X314066Y1400679D01*
X326762D02*
X329301Y1403218D01*
X334380D01*
X336919Y1400679D01*
Y1398140D01*
X334380Y1395600D01*
X331840D01*
X334380D01*
X336919Y1393061D01*
Y1390522D01*
X334380Y1387983D01*
X329301D01*
X326762Y1390522D01*
X1731012Y525778D02*
X1725934D01*
X1728473D01*
Y513082D01*
X1725934Y510542D01*
X1723394D01*
X1720855Y513082D01*
X1736090Y510542D02*
X1741169D01*
X1738630D01*
Y525778D01*
X1736090Y523238D01*
X1748786Y510542D02*
X1753865D01*
X1751326D01*
Y525778D01*
X1748786Y523238D01*
X255402Y1034158D02*
Y1029079D01*
Y1031618D01*
X268098D01*
X270637Y1029079D01*
Y1026540D01*
X268098Y1024001D01*
X255402Y1049393D02*
Y1039236D01*
X263020D01*
X260480Y1044314D01*
Y1046854D01*
X263020Y1049393D01*
X268098D01*
X270637Y1046854D01*
Y1041775D01*
X268098Y1039236D01*
X933582Y532508D02*
Y527429D01*
Y529968D01*
X946278D01*
X948817Y527429D01*
Y524890D01*
X946278Y522351D01*
X948817Y545204D02*
X933582D01*
X941199Y537586D01*
Y547743D01*
X1047751Y528317D02*
X1042673D01*
X1045212D01*
Y515622D01*
X1042673Y513083D01*
X1040133D01*
X1037594Y515622D01*
X1052829Y525778D02*
X1055368Y528317D01*
X1060447D01*
X1062986Y525778D01*
Y523239D01*
X1060447Y520700D01*
X1057907D01*
X1060447D01*
X1062986Y518161D01*
Y515622D01*
X1060447Y513083D01*
X1055368D01*
X1052829Y515622D01*
X447172Y1580258D02*
Y1575179D01*
Y1577719D01*
X459868D01*
X462407Y1575179D01*
Y1572640D01*
X459868Y1570101D01*
X447172Y1585336D02*
Y1595493D01*
X449711D01*
X459868Y1585336D01*
X462407D01*
X856358Y1367658D02*
X851279D01*
X853819D01*
Y1354962D01*
X851279Y1352423D01*
X848740D01*
X846201Y1354962D01*
X871593Y1352423D02*
X861436D01*
X871593Y1362580D01*
Y1365119D01*
X869054Y1367658D01*
X863975D01*
X861436Y1365119D01*
X758191Y595632D02*
Y605788D01*
X755652Y608327D01*
X750573D01*
X748034Y605788D01*
Y595632D01*
X750573Y593092D01*
X755652D01*
X753112Y598171D02*
X758191Y593092D01*
X755652D02*
X758191Y595632D01*
X763269D02*
X765808Y593092D01*
X770887D01*
X773426Y595632D01*
Y605788D01*
X770887Y608327D01*
X765808D01*
X763269Y605788D01*
Y603249D01*
X765808Y600710D01*
X773426D01*
X780922Y634368D02*
X791079D01*
X793618Y636908D01*
Y641986D01*
X791079Y644525D01*
X780922D01*
X778383Y641986D01*
Y636908D01*
X783461Y639447D02*
X778383Y634368D01*
Y636908D02*
X780922Y634368D01*
X791079Y629290D02*
X793618Y626751D01*
Y621672D01*
X791079Y619133D01*
X788540D01*
X786001Y621672D01*
X783461Y619133D01*
X780922D01*
X778383Y621672D01*
Y626751D01*
X780922Y629290D01*
X783461D01*
X786001Y626751D01*
X788540Y629290D01*
X791079D01*
X786001Y626751D02*
Y621672D01*
X309883Y789938D02*
X304804D01*
X307344D01*
Y777242D01*
X304804Y774703D01*
X302265D01*
X299726Y777242D01*
X314961Y774703D02*
X320040D01*
X317500D01*
Y789938D01*
X314961Y787398D01*
X327657D02*
X330196Y789938D01*
X335275D01*
X337814Y787398D01*
Y777242D01*
X335275Y774703D01*
X330196D01*
X327657Y777242D01*
Y787398D01*
X765807Y657867D02*
X750572D01*
Y665484D01*
X753112Y668023D01*
X758190D01*
X760729Y665484D01*
Y657867D01*
Y662945D02*
X765807Y668023D01*
Y683258D02*
Y673102D01*
X755651Y683258D01*
X753112D01*
X750572Y680719D01*
Y675641D01*
X753112Y673102D01*
X750572Y688337D02*
Y698493D01*
X753112D01*
X763268Y688337D01*
X765807D01*
X1261823Y419104D02*
X1277057D01*
Y426722D01*
X1274518Y429261D01*
X1264362D01*
X1261823Y426722D01*
Y419104D01*
X1277057Y444496D02*
Y434339D01*
X1266901Y444496D01*
X1264362D01*
X1261823Y441957D01*
Y436878D01*
X1264362Y434339D01*
X1213490Y455337D02*
X1228725D01*
Y465494D01*
Y470572D02*
Y475650D01*
Y473111D01*
X1213490D01*
X1216029Y470572D01*
X600713Y603247D02*
X610870Y588013D01*
Y603247D02*
X600713Y588013D01*
X615948D02*
X621027D01*
X618488D01*
Y603247D01*
X615948Y600708D01*
X255402Y880488D02*
Y875409D01*
Y877949D01*
X268098D01*
X270637Y875409D01*
Y872870D01*
X268098Y870331D01*
Y885566D02*
X270637Y888105D01*
Y893184D01*
X268098Y895723D01*
X257941D01*
X255402Y893184D01*
Y888105D01*
X257941Y885566D01*
X260480D01*
X263020Y888105D01*
Y895723D01*
X255402Y931288D02*
Y926209D01*
Y928748D01*
X268098D01*
X270637Y926209D01*
Y923670D01*
X268098Y921131D01*
X257941Y936366D02*
X255402Y938905D01*
Y943984D01*
X257941Y946523D01*
X260480D01*
X263020Y943984D01*
X265559Y946523D01*
X268098D01*
X270637Y943984D01*
Y938905D01*
X268098Y936366D01*
X265559D01*
X263020Y938905D01*
X260480Y936366D01*
X257941D01*
X263020Y938905D02*
Y943984D01*
X255402Y982088D02*
Y977009D01*
Y979548D01*
X268098D01*
X270637Y977009D01*
Y974470D01*
X268098Y971931D01*
X255402Y997323D02*
X257941Y992244D01*
X263020Y987166D01*
X268098D01*
X270637Y989705D01*
Y994784D01*
X268098Y997323D01*
X265559D01*
X263020Y994784D01*
Y987166D01*
X462280Y525778D02*
X457202D01*
X459741D01*
Y513082D01*
X457202Y510542D01*
X454663D01*
X452123Y513082D01*
X467358Y510542D02*
X472437D01*
X469898D01*
Y525778D01*
X467358Y523238D01*
X1378082Y399865D02*
X1393317D01*
Y407482D01*
X1390778Y410022D01*
X1388239D01*
X1385699Y407482D01*
Y399865D01*
Y407482D01*
X1383160Y410022D01*
X1380621D01*
X1378082Y407482D01*
Y399865D01*
X1393317Y415100D02*
Y420178D01*
Y417639D01*
X1378082D01*
X1380621Y415100D01*
X476252Y1013457D02*
Y1000762D01*
X478791Y998223D01*
X483869D01*
X486408Y1000762D01*
Y1013457D01*
X463164Y1211958D02*
X447929D01*
Y1204341D01*
X450468Y1201802D01*
X453007D01*
X455546Y1204341D01*
Y1211958D01*
Y1204341D01*
X458086Y1201802D01*
X460625D01*
X463164Y1204341D01*
Y1211958D01*
X460625Y1196723D02*
X463164Y1194184D01*
Y1189106D01*
X460625Y1186567D01*
X458086D01*
X455546Y1189106D01*
Y1191645D01*
Y1189106D01*
X453007Y1186567D01*
X450468D01*
X447929Y1189106D01*
Y1194184D01*
X450468Y1196723D01*
X698346Y678183D02*
Y693418D01*
X705963D01*
X708503Y690878D01*
Y685800D01*
X705963Y683261D01*
X698346D01*
X703424D02*
X708503Y678183D01*
X713581Y690878D02*
X716120Y693418D01*
X721198D01*
X723738Y690878D01*
Y688339D01*
X721198Y685800D01*
X718659D01*
X721198D01*
X723738Y683261D01*
Y680722D01*
X721198Y678183D01*
X716120D01*
X713581Y680722D01*
X728816Y678183D02*
X733894D01*
X731355D01*
Y693418D01*
X728816Y690878D01*
X685807Y697233D02*
Y712467D01*
X693424D01*
X695963Y709928D01*
Y704850D01*
X693424Y702311D01*
X685807D01*
X690885D02*
X695963Y697233D01*
X701042Y709928D02*
X703581Y712467D01*
X708659D01*
X711198Y709928D01*
Y707389D01*
X708659Y704850D01*
X706120D01*
X708659D01*
X711198Y702311D01*
Y699772D01*
X708659Y697233D01*
X703581D01*
X701042Y699772D01*
X716277Y709928D02*
X718816Y712467D01*
X723894D01*
X726433Y709928D01*
Y699772D01*
X723894Y697233D01*
X718816D01*
X716277Y699772D01*
Y709928D01*
X707393Y645158D02*
X704854Y647698D01*
X699775D01*
X697236Y645158D01*
Y635002D01*
X699775Y632463D01*
X704854D01*
X707393Y635002D01*
X712471Y632463D02*
X717550D01*
X715010D01*
Y647698D01*
X712471Y645158D01*
X725167Y635002D02*
X727706Y632463D01*
X732785D01*
X735324Y635002D01*
Y645158D01*
X732785Y647698D01*
X727706D01*
X725167Y645158D01*
Y642619D01*
X727706Y640080D01*
X735324D01*
X605793Y654048D02*
X603254Y656588D01*
X598175D01*
X595636Y654048D01*
Y643892D01*
X598175Y641352D01*
X603254D01*
X605793Y643892D01*
X610871Y641352D02*
X615950D01*
X613410D01*
Y656588D01*
X610871Y654048D01*
X623567D02*
X626106Y656588D01*
X631185D01*
X633724Y654048D01*
Y651509D01*
X631185Y648970D01*
X633724Y646431D01*
Y643892D01*
X631185Y641352D01*
X626106D01*
X623567Y643892D01*
Y646431D01*
X626106Y648970D01*
X623567Y651509D01*
Y654048D01*
X626106Y648970D02*
X631185D01*
X530863Y646428D02*
X528324Y648968D01*
X523245D01*
X520706Y646428D01*
Y636272D01*
X523245Y633732D01*
X528324D01*
X530863Y636272D01*
X535941Y633732D02*
X541020D01*
X538480D01*
Y648968D01*
X535941Y646428D01*
X548637Y648968D02*
X558794D01*
Y646428D01*
X548637Y636272D01*
Y633732D01*
X516045Y691726D02*
X514352Y693418D01*
X510967D01*
X509274Y691726D01*
Y684954D01*
X510967Y683262D01*
X514352D01*
X516045Y684954D01*
X519431Y683262D02*
X522816D01*
X521124D01*
Y693418D01*
X519431Y691726D01*
X534666Y693418D02*
X531280Y691726D01*
X527895Y688340D01*
Y684954D01*
X529588Y683262D01*
X532973D01*
X534666Y684954D01*
Y686647D01*
X532973Y688340D01*
X527895D01*
X514775Y661246D02*
X513083Y662938D01*
X509697D01*
X508004Y661246D01*
Y654474D01*
X509697Y652782D01*
X513083D01*
X514775Y654474D01*
X518161Y652782D02*
X521546D01*
X519854D01*
Y662938D01*
X518161Y661246D01*
X533396Y662938D02*
X526625D01*
Y657860D01*
X530010Y659553D01*
X531703D01*
X533396Y657860D01*
Y654474D01*
X531703Y652782D01*
X528318D01*
X526625Y654474D01*
X514775Y727286D02*
X513083Y728978D01*
X509697D01*
X508004Y727286D01*
Y720514D01*
X509697Y718822D01*
X513083D01*
X514775Y720514D01*
X518161Y718822D02*
X521546D01*
X519854D01*
Y728978D01*
X518161Y727286D01*
X531703Y718822D02*
Y728978D01*
X526625Y723900D01*
X533396D01*
X613413Y800098D02*
X610874Y802637D01*
X605795D01*
X603256Y800098D01*
Y789942D01*
X605795Y787402D01*
X610874D01*
X613413Y789942D01*
X618491Y787402D02*
X623570D01*
X621030D01*
Y802637D01*
X618491Y800098D01*
X641344Y787402D02*
X631187D01*
X641344Y797559D01*
Y800098D01*
X638805Y802637D01*
X633726D01*
X631187Y800098D01*
X499112Y811528D02*
X496573Y814068D01*
X491494D01*
X488955Y811528D01*
Y801372D01*
X491494Y798832D01*
X496573D01*
X499112Y801372D01*
X504190Y798832D02*
X509269D01*
X506730D01*
Y814068D01*
X504190Y811528D01*
X516886Y798832D02*
X521965D01*
X519426D01*
Y814068D01*
X516886Y811528D01*
X1376683Y532128D02*
X1374144Y534668D01*
X1369065D01*
X1366526Y532128D01*
Y521972D01*
X1369065Y519432D01*
X1374144D01*
X1376683Y521972D01*
X1381761Y519432D02*
X1386840D01*
X1384300D01*
Y534668D01*
X1381761Y532128D01*
X1394457D02*
X1396996Y534668D01*
X1402075D01*
X1404614Y532128D01*
Y521972D01*
X1402075Y519432D01*
X1396996D01*
X1394457Y521972D01*
Y532128D01*
X1385571Y476248D02*
X1383032Y478787D01*
X1377953D01*
X1375414Y476248D01*
Y466092D01*
X1377953Y463553D01*
X1383032D01*
X1385571Y466092D01*
X1390649D02*
X1393188Y463553D01*
X1398267D01*
X1400806Y466092D01*
Y476248D01*
X1398267Y478787D01*
X1393188D01*
X1390649Y476248D01*
Y473709D01*
X1393188Y471170D01*
X1400806D01*
X1370715Y365002D02*
X1368176Y362463D01*
Y357384D01*
X1370715Y354845D01*
X1380872D01*
X1383411Y357384D01*
Y362463D01*
X1380872Y365002D01*
X1370715Y370080D02*
X1368176Y372619D01*
Y377698D01*
X1370715Y380237D01*
X1373254D01*
X1375793Y377698D01*
X1378333Y380237D01*
X1380872D01*
X1383411Y377698D01*
Y372619D01*
X1380872Y370080D01*
X1378333D01*
X1375793Y372619D01*
X1373254Y370080D01*
X1370715D01*
X1375793Y372619D02*
Y377698D01*
X1327535Y365242D02*
X1324996Y362702D01*
Y357624D01*
X1327535Y355085D01*
X1337692D01*
X1340231Y357624D01*
Y362702D01*
X1337692Y365242D01*
X1324996Y370320D02*
Y380477D01*
X1327535D01*
X1337692Y370320D01*
X1340231D01*
X1285625Y365242D02*
X1283086Y362702D01*
Y357624D01*
X1285625Y355085D01*
X1295782D01*
X1298321Y357624D01*
Y362702D01*
X1295782Y365242D01*
X1283086Y380477D02*
X1285625Y375398D01*
X1290703Y370320D01*
X1295782D01*
X1298321Y372859D01*
Y377938D01*
X1295782Y380477D01*
X1293243D01*
X1290703Y377938D01*
Y370320D01*
X1241810Y365622D02*
X1239271Y363083D01*
Y358004D01*
X1241810Y355465D01*
X1251967D01*
X1254506Y358004D01*
Y363083D01*
X1251967Y365622D01*
X1239271Y380857D02*
Y370700D01*
X1246889D01*
X1244349Y375778D01*
Y378318D01*
X1246889Y380857D01*
X1251967D01*
X1254506Y378318D01*
Y373239D01*
X1251967Y370700D01*
X1463425Y577332D02*
X1460886Y574793D01*
Y569714D01*
X1463425Y567175D01*
X1473582D01*
X1476121Y569714D01*
Y574793D01*
X1473582Y577332D01*
X1476121Y590028D02*
X1460886D01*
X1468504Y582410D01*
Y592567D01*
X1421515Y577212D02*
X1418976Y574673D01*
Y569594D01*
X1421515Y567055D01*
X1431672D01*
X1434211Y569594D01*
Y574673D01*
X1431672Y577212D01*
X1421515Y582290D02*
X1418976Y584829D01*
Y589908D01*
X1421515Y592447D01*
X1424054D01*
X1426593Y589908D01*
Y587368D01*
Y589908D01*
X1429133Y592447D01*
X1431672D01*
X1434211Y589908D01*
Y584829D01*
X1431672Y582290D01*
X1382145Y577212D02*
X1379606Y574673D01*
Y569594D01*
X1382145Y567055D01*
X1392302D01*
X1394841Y569594D01*
Y574673D01*
X1392302Y577212D01*
X1394841Y592447D02*
Y582290D01*
X1384684Y592447D01*
X1382145D01*
X1379606Y589908D01*
Y584829D01*
X1382145Y582290D01*
X1371600Y459738D02*
X1369061Y462277D01*
X1363983D01*
X1361443Y459738D01*
Y449582D01*
X1363983Y447043D01*
X1369061D01*
X1371600Y449582D01*
X1376678Y447043D02*
X1381757D01*
X1379218D01*
Y462277D01*
X1376678Y459738D01*
X718948Y1560954D02*
X708791D01*
X706252Y1558414D01*
Y1553336D01*
X708791Y1550797D01*
X718948D01*
X721487Y1553336D01*
Y1558414D01*
X716409Y1555875D02*
X721487Y1560954D01*
Y1558414D02*
X718948Y1560954D01*
X706252Y1566032D02*
Y1576189D01*
X708791D01*
X718948Y1566032D01*
X721487D01*
X716408Y1457322D02*
X706251D01*
X703712Y1454783D01*
Y1449704D01*
X706251Y1447165D01*
X716408D01*
X718947Y1449704D01*
Y1454783D01*
X713869Y1452243D02*
X718947Y1457322D01*
Y1454783D02*
X716408Y1457322D01*
X703712Y1472557D02*
X706251Y1467478D01*
X711329Y1462400D01*
X716408D01*
X718947Y1464939D01*
Y1470018D01*
X716408Y1472557D01*
X713869D01*
X711329Y1470018D01*
Y1462400D01*
X652908Y1562224D02*
X642751D01*
X640212Y1559684D01*
Y1554606D01*
X642751Y1552067D01*
X652908D01*
X655447Y1554606D01*
Y1559684D01*
X650369Y1557145D02*
X655447Y1562224D01*
Y1559684D02*
X652908Y1562224D01*
X640212Y1577459D02*
Y1567302D01*
X647830D01*
X645290Y1572380D01*
Y1574920D01*
X647830Y1577459D01*
X652908D01*
X655447Y1574920D01*
Y1569841D01*
X652908Y1567302D01*
X660378Y1456392D02*
X650221D01*
X647682Y1453853D01*
Y1448774D01*
X650221Y1446235D01*
X660378D01*
X662917Y1448774D01*
Y1453853D01*
X657839Y1451313D02*
X662917Y1456392D01*
Y1453853D02*
X660378Y1456392D01*
X662917Y1469088D02*
X647682D01*
X655300Y1461470D01*
Y1471627D01*
X593218Y1563494D02*
X583061D01*
X580522Y1560954D01*
Y1555876D01*
X583061Y1553337D01*
X593218D01*
X595757Y1555876D01*
Y1560954D01*
X590679Y1558415D02*
X595757Y1563494D01*
Y1560954D02*
X593218Y1563494D01*
X583061Y1568572D02*
X580522Y1571111D01*
Y1576190D01*
X583061Y1578729D01*
X585600D01*
X588139Y1576190D01*
Y1573650D01*
Y1576190D01*
X590679Y1578729D01*
X593218D01*
X595757Y1576190D01*
Y1571111D01*
X593218Y1568572D01*
X597028Y1456052D02*
X586871D01*
X584332Y1453513D01*
Y1448434D01*
X586871Y1445895D01*
X597028D01*
X599567Y1448434D01*
Y1453513D01*
X594489Y1450973D02*
X599567Y1456052D01*
Y1453513D02*
X597028Y1456052D01*
X599567Y1471287D02*
Y1461130D01*
X589410Y1471287D01*
X586871D01*
X584332Y1468748D01*
Y1463669D01*
X586871Y1461130D01*
X741680Y473142D02*
Y483298D01*
X739141Y485838D01*
X734062D01*
X731523Y483298D01*
Y473142D01*
X734062Y470602D01*
X739141D01*
X736602Y475681D02*
X741680Y470602D01*
X739141D02*
X741680Y473142D01*
X746758Y470602D02*
X751837D01*
X749298D01*
Y485838D01*
X746758Y483298D01*
X542163Y786506D02*
Y771271D01*
X549781D01*
X552320Y773810D01*
Y776349D01*
X549781Y778888D01*
X542163D01*
X549781D01*
X552320Y781428D01*
Y783967D01*
X549781Y786506D01*
X542163D01*
X567555Y771271D02*
X557398D01*
X567555Y781428D01*
Y783967D01*
X565016Y786506D01*
X559937D01*
X557398Y783967D01*
X627387Y661673D02*
Y676908D01*
X635004D01*
X637543Y674368D01*
Y669290D01*
X635004Y666751D01*
X627387D01*
X632465D02*
X637543Y661673D01*
X652778D02*
X642622D01*
X652778Y671829D01*
Y674368D01*
X650239Y676908D01*
X645161D01*
X642622Y674368D01*
X657857Y664212D02*
X660396Y661673D01*
X665474D01*
X668013Y664212D01*
Y674368D01*
X665474Y676908D01*
X660396D01*
X657857Y674368D01*
Y671829D01*
X660396Y669290D01*
X668013D01*
X553727Y659133D02*
Y674368D01*
X561344D01*
X563883Y671828D01*
Y666750D01*
X561344Y664211D01*
X553727D01*
X558805D02*
X563883Y659133D01*
X579118D02*
X568962D01*
X579118Y669289D01*
Y671828D01*
X576579Y674368D01*
X571501D01*
X568962Y671828D01*
X584197D02*
X586736Y674368D01*
X591814D01*
X594353Y671828D01*
Y669289D01*
X591814Y666750D01*
X594353Y664211D01*
Y661672D01*
X591814Y659133D01*
X586736D01*
X584197Y661672D01*
Y664211D01*
X586736Y666750D01*
X584197Y669289D01*
Y671828D01*
X586736Y666750D02*
X591814D01*
X764319Y1390269D02*
Y1375034D01*
X756702D01*
X754162Y1377573D01*
Y1382652D01*
X756702Y1385191D01*
X764319D01*
X759241D02*
X754162Y1390269D01*
X738927D02*
X749084D01*
X738927Y1380112D01*
Y1377573D01*
X741466Y1375034D01*
X746545D01*
X749084Y1377573D01*
X723692Y1375034D02*
X728771Y1377573D01*
X733849Y1382652D01*
Y1387730D01*
X731310Y1390269D01*
X726231D01*
X723692Y1387730D01*
Y1385191D01*
X726231Y1382652D01*
X733849D01*
X728987Y1529082D02*
Y1544317D01*
X736604D01*
X739143Y1541778D01*
Y1536700D01*
X736604Y1534161D01*
X728987D01*
X734065D02*
X739143Y1529082D01*
X754378D02*
X744222D01*
X754378Y1539239D01*
Y1541778D01*
X751839Y1544317D01*
X746761D01*
X744222Y1541778D01*
X769613Y1544317D02*
X759457D01*
Y1536700D01*
X764535Y1539239D01*
X767074D01*
X769613Y1536700D01*
Y1531622D01*
X767074Y1529082D01*
X761996D01*
X759457Y1531622D01*
X707009Y1390269D02*
Y1375034D01*
X699391D01*
X696852Y1377573D01*
Y1382652D01*
X699391Y1385191D01*
X707009D01*
X701931D02*
X696852Y1390269D01*
X681617D02*
X691774D01*
X681617Y1380112D01*
Y1377573D01*
X684156Y1375034D01*
X689235D01*
X691774Y1377573D01*
X668921Y1390269D02*
Y1375034D01*
X676539Y1382652D01*
X666382D01*
X664217Y1529082D02*
Y1544317D01*
X671834D01*
X674373Y1541778D01*
Y1536700D01*
X671834Y1534161D01*
X664217D01*
X669295D02*
X674373Y1529082D01*
X689608D02*
X679452D01*
X689608Y1539239D01*
Y1541778D01*
X687069Y1544317D01*
X681991D01*
X679452Y1541778D01*
X694687D02*
X697226Y1544317D01*
X702304D01*
X704843Y1541778D01*
Y1539239D01*
X702304Y1536700D01*
X699765D01*
X702304D01*
X704843Y1534161D01*
Y1531622D01*
X702304Y1529082D01*
X697226D01*
X694687Y1531622D01*
X646209Y1388999D02*
Y1373764D01*
X638591D01*
X636052Y1376303D01*
Y1381382D01*
X638591Y1383921D01*
X646209D01*
X641131D02*
X636052Y1388999D01*
X620817D02*
X630974D01*
X620817Y1378842D01*
Y1376303D01*
X623356Y1373764D01*
X628435D01*
X630974Y1376303D01*
X605582Y1388999D02*
X615739D01*
X605582Y1378842D01*
Y1376303D01*
X608121Y1373764D01*
X613200D01*
X615739Y1376303D01*
X611411Y1529461D02*
Y1544696D01*
X619029D01*
X621568Y1542157D01*
Y1537079D01*
X619029Y1534539D01*
X611411D01*
X616489D02*
X621568Y1529461D01*
X636803D02*
X626646D01*
X636803Y1539618D01*
Y1542157D01*
X634264Y1544696D01*
X629185D01*
X626646Y1542157D01*
X641881Y1529461D02*
X646960D01*
X644420D01*
Y1544696D01*
X641881Y1542157D01*
X393703Y928363D02*
X408937D01*
Y920746D01*
X406398Y918207D01*
X401320D01*
X398781Y920746D01*
Y928363D01*
Y923285D02*
X393703Y918207D01*
Y902972D02*
Y913128D01*
X403859Y902972D01*
X406398D01*
X408937Y905511D01*
Y910589D01*
X406398Y913128D01*
Y897893D02*
X408937Y895354D01*
Y890276D01*
X406398Y887737D01*
X396242D01*
X393703Y890276D01*
Y895354D01*
X396242Y897893D01*
X406398D01*
X367033Y928364D02*
X382267D01*
Y920746D01*
X379728Y918207D01*
X374650D01*
X372111Y920746D01*
Y928364D01*
Y923286D02*
X367033Y918207D01*
Y913129D02*
Y908050D01*
Y910590D01*
X382267D01*
X379728Y913129D01*
X369572Y900433D02*
X367033Y897894D01*
Y892815D01*
X369572Y890276D01*
X379728D01*
X382267Y892815D01*
Y897894D01*
X379728Y900433D01*
X377189D01*
X374650Y897894D01*
Y890276D01*
X448312Y928684D02*
X463548D01*
Y921066D01*
X461008Y918527D01*
X455930D01*
X453391Y921066D01*
Y928684D01*
Y923605D02*
X448312Y918527D01*
Y913449D02*
Y908370D01*
Y910910D01*
X463548D01*
X461008Y913449D01*
Y900753D02*
X463548Y898214D01*
Y893135D01*
X461008Y890596D01*
X458469D01*
X455930Y893135D01*
X453391Y890596D01*
X450852D01*
X448312Y893135D01*
Y898214D01*
X450852Y900753D01*
X453391D01*
X455930Y898214D01*
X458469Y900753D01*
X461008D01*
X455930Y898214D02*
Y893135D01*
X421642Y928364D02*
X436878D01*
Y920746D01*
X434338Y918207D01*
X429260D01*
X426721Y920746D01*
Y928364D01*
Y923286D02*
X421642Y918207D01*
Y913129D02*
Y908050D01*
Y910590D01*
X436878D01*
X434338Y913129D01*
X436878Y900433D02*
Y890276D01*
X434338D01*
X424182Y900433D01*
X421642D01*
X501652Y927094D02*
X516888D01*
Y919476D01*
X514348Y916937D01*
X509270D01*
X506731Y919476D01*
Y927094D01*
Y922016D02*
X501652Y916937D01*
Y911859D02*
Y906780D01*
Y909320D01*
X516888D01*
X514348Y911859D01*
X516888Y889006D02*
X514348Y894084D01*
X509270Y899163D01*
X504192D01*
X501652Y896624D01*
Y891545D01*
X504192Y889006D01*
X506731D01*
X509270Y891545D01*
Y899163D01*
X477523Y926774D02*
X492758D01*
Y919156D01*
X490218Y916617D01*
X485140D01*
X482601Y919156D01*
Y926774D01*
Y921695D02*
X477523Y916617D01*
Y911539D02*
Y906460D01*
Y909000D01*
X492758D01*
X490218Y911539D01*
X492758Y888686D02*
Y898843D01*
X485140D01*
X487679Y893764D01*
Y891225D01*
X485140Y888686D01*
X480062D01*
X477523Y891225D01*
Y896304D01*
X480062Y898843D01*
X684536Y717552D02*
Y732787D01*
X692154D01*
X694693Y730248D01*
Y725170D01*
X692154Y722631D01*
X684536D01*
X689614D02*
X694693Y717552D01*
X699771D02*
X704850D01*
X702310D01*
Y732787D01*
X699771Y730248D01*
X712467D02*
X715006Y732787D01*
X720085D01*
X722624Y730248D01*
Y727709D01*
X720085Y725170D01*
X717545D01*
X720085D01*
X722624Y722631D01*
Y720092D01*
X720085Y717552D01*
X715006D01*
X712467Y720092D01*
X446094Y657862D02*
Y668018D01*
X451172D01*
X452865Y666326D01*
Y662940D01*
X451172Y661247D01*
X446094D01*
X449480D02*
X452865Y657862D01*
X456251D02*
X459636D01*
X457944D01*
Y668018D01*
X456251Y666326D01*
X471486Y657862D02*
X464715D01*
X471486Y664633D01*
Y666326D01*
X469793Y668018D01*
X466408D01*
X464715Y666326D01*
X442707Y695962D02*
Y706118D01*
X447785D01*
X449478Y704426D01*
Y701040D01*
X447785Y699347D01*
X442707D01*
X446092D02*
X449478Y695962D01*
X452864D02*
X456249D01*
X454556D01*
Y706118D01*
X452864Y704426D01*
X461328Y695962D02*
X464713D01*
X463020D01*
Y706118D01*
X461328Y704426D01*
X446884Y737872D02*
Y748028D01*
X451963D01*
X453655Y746336D01*
Y742950D01*
X451963Y741257D01*
X446884D01*
X450270D02*
X453655Y737872D01*
X457041D02*
X460426D01*
X458734D01*
Y748028D01*
X457041Y746336D01*
X465505D02*
X467198Y748028D01*
X470583D01*
X472276Y746336D01*
Y739564D01*
X470583Y737872D01*
X467198D01*
X465505Y739564D01*
Y746336D01*
X439801Y782701D02*
Y797936D01*
X447419D01*
X449958Y795397D01*
Y790319D01*
X447419Y787779D01*
X439801D01*
X444879D02*
X449958Y782701D01*
X455036Y785240D02*
X457575Y782701D01*
X462654D01*
X465193Y785240D01*
Y795397D01*
X462654Y797936D01*
X457575D01*
X455036Y795397D01*
Y792858D01*
X457575Y790319D01*
X465193D01*
X443451Y824611D02*
Y839846D01*
X451068D01*
X453608Y837307D01*
Y832228D01*
X451068Y829689D01*
X443451D01*
X448529D02*
X453608Y824611D01*
X458686Y837307D02*
X461225Y839846D01*
X466304D01*
X468843Y837307D01*
Y834768D01*
X466304Y832228D01*
X468843Y829689D01*
Y827150D01*
X466304Y824611D01*
X461225D01*
X458686Y827150D01*
Y829689D01*
X461225Y832228D01*
X458686Y834768D01*
Y837307D01*
X461225Y832228D02*
X466304D01*
X1427099Y354551D02*
X1411864D01*
Y362169D01*
X1414403Y364708D01*
X1419481D01*
X1422021Y362169D01*
Y354551D01*
Y359629D02*
X1427099Y364708D01*
X1411864Y369786D02*
Y379943D01*
X1414403D01*
X1424560Y369786D01*
X1427099D01*
X1474474Y326393D02*
Y341628D01*
X1482092D01*
X1484631Y339088D01*
Y334010D01*
X1482092Y331471D01*
X1474474D01*
X1479552D02*
X1484631Y326393D01*
X1499866Y341628D02*
X1494787Y339088D01*
X1489709Y334010D01*
Y328932D01*
X1492248Y326393D01*
X1497327D01*
X1499866Y328932D01*
Y331471D01*
X1497327Y334010D01*
X1489709D01*
X1438914Y478792D02*
Y494027D01*
X1446532D01*
X1449071Y491488D01*
Y486410D01*
X1446532Y483871D01*
X1438914D01*
X1443992D02*
X1449071Y478792D01*
X1464306Y494027D02*
X1454149D01*
Y486410D01*
X1459227Y488949D01*
X1461767D01*
X1464306Y486410D01*
Y481332D01*
X1461767Y478792D01*
X1456688D01*
X1454149Y481332D01*
X1404624Y300993D02*
Y316227D01*
X1412242D01*
X1414781Y313688D01*
Y308610D01*
X1412242Y306071D01*
X1404624D01*
X1409702D02*
X1414781Y300993D01*
X1427477D02*
Y316227D01*
X1419859Y308610D01*
X1430016D01*
X1454154Y547373D02*
Y562607D01*
X1461772D01*
X1464311Y560068D01*
Y554990D01*
X1461772Y552451D01*
X1454154D01*
X1459232D02*
X1464311Y547373D01*
X1469389Y560068D02*
X1471928Y562607D01*
X1477007D01*
X1479546Y560068D01*
Y557529D01*
X1477007Y554990D01*
X1474467D01*
X1477007D01*
X1479546Y552451D01*
Y549912D01*
X1477007Y547373D01*
X1471928D01*
X1469389Y549912D01*
X1407164Y547373D02*
Y562607D01*
X1414782D01*
X1417321Y560068D01*
Y554990D01*
X1414782Y552451D01*
X1407164D01*
X1412242D02*
X1417321Y547373D01*
X1432556D02*
X1422399D01*
X1432556Y557529D01*
Y560068D01*
X1430017Y562607D01*
X1424938D01*
X1422399Y560068D01*
X712467Y441803D02*
X697232D01*
Y449421D01*
X699772Y451960D01*
X704850D01*
X707389Y449421D01*
Y441803D01*
Y446882D02*
X712467Y451960D01*
Y457038D02*
Y462117D01*
Y459577D01*
X697232D01*
X699772Y457038D01*
X645033Y778637D02*
Y793872D01*
X652651D01*
X655190Y791333D01*
Y786255D01*
X652651Y783715D01*
X645033D01*
X650111D02*
X655190Y778637D01*
X660268D02*
X665346D01*
X662807D01*
Y793872D01*
X660268Y791333D01*
X680582Y778637D02*
Y793872D01*
X672964Y786255D01*
X683121D01*
M02*
